<svg width="134" height="252" viewBox="0 0 134 252" fill="none" xmlns="http://www.w3.org/2000/svg">
<g opacity="0.1">
<path d="M112.329 144.846C119.036 160.654 127.817 187.897 107.131 233.576C123.203 224.557 133.712 199.741 133.712 183.797C133.712 167.852 125.551 150.065 112.329 144.846Z" fill="#9268F8"/>
<path d="M63.2129 235.671C77.8369 242.41 102.96 242.051 116.136 234.024C122.536 230.125 126.015 240.197 119.099 246.249C115.281 249.592 103.819 251.091 91.4399 251.091C74.2749 251.091 63.2129 235.676 63.2129 235.676V235.671Z" fill="#9268F8"/>
<path d="M27.3517 89.8207C31.2947 93.7523 35.7416 93.0488 41.9137 103.557C47.5277 113.105 44.8037 122.212 44.7987 122.222C44.7987 122.195 43.0956 112.238 27.3466 104.484C19.0196 100.378 17.8477 96.9968 17.8477 92.2418C17.8477 85.7746 27.3256 80.4035 27.3466 80.3926V89.8262L27.3517 89.8207Z" fill="#9268F8"/>
<path d="M26.6279 47.7629C30.5699 51.6945 43.7099 61.9187 43.7099 61.9187C48.0119 66.4174 51.2249 68.8439 51.2249 78.6374C51.2249 89.8541 43.2669 92.237 43.2669 92.237V79.9734L26.6279 67.5243C20.0449 63.3692 17.1289 57.8835 17.1289 53.1286C17.1289 42.3699 26.6279 41.4102 26.6279 41.4102V47.7629Z" fill="#9268F8"/>
<path fill-rule="evenodd" clip-rule="evenodd" d="M48.1317 0.0163588C54.4647 0.0163588 61.3957 3.37537 67.4837 7.66683C67.9007 9.27544 67.0886 11.2549 66.3596 12.7326C67.1767 12.7217 68.0097 12.7653 68.8277 12.8798C73.9527 13.5996 75.4677 14.4775 76.4937 16.8169C75.2647 15.7699 74.1447 15.001 71.6457 14.5702C74.0197 15.2519 75.4676 17.1059 75.4886 18.3164C74.5096 17.0895 69.8847 14.0577 65.6877 14.0522C57.0527 14.0522 56.2557 16.4351 53.0527 16.5278L53.1676 16.5006C48.1836 16.3424 41.8097 11.353 41.6327 9.09004C41.0227 10.9549 41.7986 12.8853 42.8766 14.4721C37.6376 14.2376 36.1117 17.1877 35.9817 18.3764C34.4667 21.49 35.8306 25.4325 35.8356 25.4488C36.3676 23.0986 37.2887 21.4682 38.1327 20.3831C44.2047 25.2689 51.3397 29.0205 51.2307 41.4041C51.2307 53.008 43.2727 55.0038 43.2727 55.0038V42.7346C43.2727 42.7346 36.4347 37.6198 25.5816 29.5876C22.4156 27.2483 17.1396 22.2916 17.1396 15.8899C17.1396 1.67951 35.2787 0 48.1367 0L48.1317 0.0163588ZM54.6837 5.14212C53.4437 5.14212 50.2097 6.38539 50.2097 6.38539C53.2827 6.38539 54.8967 7.54686 56.2457 8.70288C56.7297 7.57413 57.1047 5.14757 54.6837 5.14757V5.14212Z" fill="#9268F8"/>
<path fill-rule="evenodd" clip-rule="evenodd" d="M22.2019 116.159C24.7169 115.663 26.6339 118.225 26.6339 122.217L26.3989 127.904C31.8829 124.414 41.3359 124.698 47.1009 124.698C54.2559 124.698 53.0269 131.209 50.8659 131.209C53.9539 131.678 52.7719 137.714 49.6419 137.714C51.1839 139.901 50.2039 144.22 47.4389 144.22C48.2519 145.719 47.3449 149.651 44.2309 149.651C30.2169 149.651 26.6289 154.307 26.6289 168.343V250.617C21.2489 250.617 -8.32708 233.784 2.27692 199.741C4.19292 211.411 9.92692 226.772 20.6969 230.48C15.1139 222.584 7.59892 209.229 7.59892 194.517C7.59892 178.202 16.5359 159.575 18.3849 152.475C21.5399 140.359 21.8429 121.601 22.2019 116.153V116.159ZM46.5749 126.187C45.0489 126.187 36.0239 126.508 36.2369 129.18C41.7099 129.104 45.2049 130.309 45.2049 133.81C45.2049 144.487 35.9139 148.391 35.8669 148.407C35.8929 148.407 41.6579 148.456 43.2679 147.497C46.0019 145.872 48.8609 139.416 47.4859 137.338C49.4809 136.187 50.3759 133.799 48.2569 131.411C49.7669 129.12 50.5379 126.198 46.5799 126.198H46.5749V126.187Z" fill="#9268F8"/>
<path d="M43.752 175.884C55.017 209.916 56.777 216.585 56.777 230.452C56.777 250.699 43.804 250.622 43.752 250.622V175.884Z" fill="#9268F8"/>
<path d="M106.158 165.895C98.398 144.847 80.025 133.81 66.635 133.81C76.015 139.416 105.512 161.958 90.362 205.276C90.362 158.495 63.162 138.63 51.231 139.459C58.813 142.736 73.603 158.457 75.942 191.551C67.266 163.479 52.204 154.297 43.752 154.297C51.163 166.337 63.276 217.202 62.834 230.458C74.421 244.608 98.211 238.561 103.101 232.901C110.761 224.034 116.672 194.403 106.163 165.9H106.158V165.895Z" fill="#9268F8"/>
<path d="M119.933 85.0605C119.933 75.9978 114.777 69.5742 104.018 69.5742C103.835 69.5742 103.648 69.6015 103.445 69.656C112.303 70.4467 114.381 76.7721 113.038 85.6004C113.845 90.0554 114.767 95.432 115.053 97.346C115.163 98.0767 114.678 98.7583 113.98 98.8619C112.882 99.0255 111.142 99.1455 109.069 98.7856C109.069 101.915 110.975 102.679 110.975 102.679L112.392 103.366L111.731 105.187C111.731 105.187 110.71 103.567 109.215 103.567C107.721 103.567 105.21 106.294 102.325 106.294L102.216 107.548C102.216 107.548 110.002 108.442 112.47 107.652C112.449 107.93 112.413 108.312 112.371 108.699C112.251 109.795 111.434 110.667 110.392 110.809C109.028 110.994 107.137 111.213 105.71 111.213C105.174 112.08 105.403 113.688 105.403 113.688C105.403 113.688 110.908 112.728 111.637 114.686C112.678 117.472 108.898 120.166 106.913 120.166C113.574 120.166 117.85 110.907 119.959 100.857C120.417 98.6765 120.745 93.06 119.594 90.6825C119.85 88.8776 119.933 86.8873 119.933 85.0551V85.0605Z" fill="#9268F8"/>
<path d="M102.518 92.1544L108.382 85.6545C101.372 80.3542 89.7588 85.6545 89.7588 85.6545C98.3618 86.3361 102.518 92.1544 102.518 92.1544Z" fill="#9268F8"/>
<path d="M79.1238 99.2981C73.9318 100.7 66.5838 101.387 64.5788 95.252C71.0368 97.8585 78.3848 96.8224 82.4418 92.3892C82.8108 93.9923 83.3948 95.3065 83.9468 96.0917C90.7528 103.115 97.4558 98.1638 97.4558 97.215C88.4778 97.215 85.4518 89.1447 85.4518 80.5127C85.3838 80.5836 85.3218 80.6545 85.2588 80.7253C85.2488 80.6545 85.2378 80.5836 85.2228 80.5127C78.0458 88.0759 56.6938 78.3915 54.7878 98.5074C54.1008 105.771 59.3708 111.366 66.4638 111.366C77.1038 111.366 79.1188 101.741 79.1188 99.2981H79.1238Z" fill="#9268F8"/>
<path d="M75.9738 82.1325C87.1338 82.1325 95.4718 71.0522 95.4718 71.0522C95.4718 71.0522 78.4058 70.8559 78.4788 66.5535C84.5618 69.3508 92.8528 68.3257 98.0138 64.6341C96.6908 62.9491 95.4768 60.817 95.4768 58.6849C95.4768 58.6849 97.2168 61.0079 99.7058 63.2217C99.7108 63.2163 99.7158 63.2108 99.7218 63.2054C100.857 64.1324 102.372 65.2775 104.003 66.2154C104.003 66.2154 104.013 66.2209 104.023 66.2263C105.877 67.2896 107.872 68.0858 109.606 68.0094C114.496 67.7804 120.142 60.0645 118.84 57.1581C116.736 56.471 102.81 56.1602 102.81 56.1602C82.6138 56.1602 72.9788 58.8212 66.6928 69.1164C63.2408 74.7765 68.8078 82.1434 75.9788 82.1434L75.9738 82.1325Z" fill="#9268F8"/>
<path d="M83.0668 95.6172C79.5508 113.574 75.3848 128.161 75.3848 128.161C90.1808 132.185 97.4928 137.845 107.523 154.411C107.523 154.411 104.19 133.21 104.945 120.167C84.5248 117.871 83.0668 102.734 83.0668 95.6172Z" fill="#9268F8"/>
<path d="M119.912 55.2711L122.911 45.903C122.911 45.903 121.568 44.796 120.235 44.3434C120.235 44.3434 118.448 52.1139 115.792 51.8031C116.662 48.1714 117.469 41.5788 117.469 41.5788C116.631 40.45 111.876 39.8829 108.944 40.8863C108.944 40.8863 109.043 46.7209 108.876 50.7125C105.101 50.7125 104.002 42.1623 104.002 42.1623C104.002 42.1623 102.455 42.4349 101.341 43.2419V51.6776L97.7366 52.152L95.4657 45.2759L91.1846 46.4483V51.863L86.8047 53.4717L84.4306 47.4734L80.0977 49.5237L81.9147 56.1545C87.5077 53.7661 111.876 53.2263 119.907 55.2766L119.912 55.2711Z" fill="#9268F8"/>
<path d="M125.907 68.003C125.303 58.6785 120.636 58.0732 120.636 58.0732C120.636 58.0732 122.47 66.2581 115.611 69.5735C119.022 70.6804 120.636 75.5444 120.636 78.3909C120.636 78.3909 126.339 74.6938 125.907 68.003Z" fill="#9268F8"/>
</g>
</svg>
