<svg width="219" height="45" viewBox="0 0 219 45" fill="none" xmlns="http://www.w3.org/2000/svg">
<g clip-path="url(#clip0_893_58)">
<path d="M24.9882 13.9922C24.9882 13.9922 24.9762 13.9922 24.9702 13.9922C24.8741 14.0101 24.8831 14.1533 24.9822 14.1682C28.2079 14.5918 29.178 17.16 28.3701 20.3337C28.6854 21.9921 29.1239 23.6267 29.235 24.3396C29.2771 24.611 29.0819 24.8317 28.8146 24.9033C28.358 25.0226 27.6853 25.0495 26.8864 24.8765C26.8864 26.0428 27.6342 26.3261 27.6342 26.3261L28.0757 26.529L27.9316 27.2598C27.9316 27.2598 27.5321 26.6572 26.9434 26.6572C26.3548 26.6572 25.3696 27.6714 24.2374 27.6714L24.1953 28.1397C24.1953 28.1397 27.2738 28.4081 28.2439 28.1158C28.2379 28.2202 28.2019 28.423 28.1869 28.5692C28.1388 28.9778 27.8505 29.3507 27.3789 29.4193C26.8443 29.4969 26.1295 29.5028 25.5709 29.5028C25.3096 29.816 25.4207 30.2455 25.5198 30.4156C25.8142 30.3827 27.8114 30.1292 27.8114 31.0986C27.8114 32.068 27.2798 32.3007 26.553 32.6437C26.4719 32.6825 26.517 32.7988 26.6041 32.7809C28.8146 32.3603 30.5025 28.9242 31.4966 25.2941C31.9832 23.5223 31.7849 21.7654 31.3164 20.8109C32.3916 16.644 29.2981 13.9893 24.9912 13.9893L24.9882 13.9922Z" fill="#281D5C"/>
<path d="M25.9283 20.96C26.4929 20.435 26.3488 19.6297 25.7811 19.4269C23.06 18.4604 19.54 19.9817 19.54 19.9817C22.9339 19.9817 24.5527 22.4037 24.5527 22.4037L25.9283 20.957V20.96Z" fill="#281D5C"/>
<path d="M13.2663 18.8328C17.1707 18.8328 20.3964 15.0685 20.9821 14.2781C21.0211 14.2274 20.9731 14.1558 20.91 14.1707C19.9669 14.3825 15.621 15.2177 14.5818 12.8672C16.9725 13.9082 20.6307 13.5175 22.2525 12.1514C21.6488 11.7129 21.0361 10.818 21.2554 9.93513C21.79 10.9344 24.0756 13.3982 26.5924 13.3982C28.836 13.3982 30.4368 10.7643 30.608 9.36243C29.7821 9.10591 24.2017 8.69727 24.2017 8.69727C16.2697 8.69727 8.86328 10.2931 8.86328 14.6897C8.86328 17.1923 10.4491 18.8328 13.2633 18.8328H13.2663Z" fill="#281D5C"/>
<path d="M30.8154 8.59085L31.9177 5.04429C31.9177 5.04429 31.4071 4.31351 30.8575 4.18525C30.6773 5.46189 30.1517 6.69975 29.2116 6.5357C29.5029 5.12781 29.8994 3.56482 29.8994 3.56482C29.1906 3.07564 28.3046 3.09354 26.5506 3.35006C26.5506 3.35006 26.6166 4.79374 26.5506 6.27917C25.4183 6.43428 25.0218 5.01148 24.8927 3.5857C24.277 3.63641 23.3129 3.77958 22.7152 3.98242C22.6551 4.73706 22.8474 5.5812 23.1056 6.5357C22.3308 6.63711 21.2976 6.8131 21.2976 6.8131C21.2976 6.8131 20.9462 5.55734 20.8951 4.47756C20.3305 4.63863 19.3754 4.91305 18.7927 5.10991C18.7927 5.69156 18.994 6.61623 19.2312 7.16507C18.8438 7.23367 17.9638 7.44545 17.6304 7.50212C17.3091 6.97118 17.1108 6.40743 16.9757 5.76613C15.8164 6.20162 15.3839 6.44919 15.2217 6.52376C15.3568 7.40369 15.5581 7.94954 15.9365 8.81754C19.4505 7.7318 27.0011 7.93463 30.8184 8.59085H30.8154Z" fill="#281D5C"/>
<path d="M31.6713 9.70904C31.6713 10.6158 31.7284 12.4264 29.2266 13.8313C30.3258 14.1534 31.7194 15.6538 31.8966 17.2764C31.8966 17.2764 34.2272 15.1437 34.2272 12.7455C34.2272 10.8574 32.281 9.70605 31.6683 9.70605L31.6713 9.70904Z" fill="#281D5C"/>
<path d="M17.5247 18.1895C15.8128 20.8919 5.09961 17.9568 5.09961 25.3094C5.09961 27.8388 7.20801 29.7359 9.86303 29.7359C14.0408 29.7359 14.8337 25.9746 14.8337 25.0648C12.7944 25.5868 10.0012 25.56 9.12118 23.5585C11.569 25.1632 14.4583 24.1521 16.0651 22.5622C16.6147 24.9216 19.543 25.8284 21.4322 24.7606C18.5008 24.7606 17.5247 22.8605 17.5247 18.1924V18.1895Z" fill="#281D5C"/>
<path d="M22.5256 0C10.1065 0 0 10.0342 0 22.371C0 34.7079 10.1065 44.7421 22.5256 44.7421C34.9447 44.7421 45.0512 34.7079 45.0512 22.371C45.0512 10.0342 34.9477 0 22.5256 0ZM30.4426 41.8965C29.4395 41.1925 26.7664 39.2447 25.6191 37.7623C24.7962 36.7004 24.8593 35.8563 24.9854 34.177C25.0064 33.8787 25.0305 33.5565 25.0545 33.2016L25.0605 33.1091H24.9674C23.5678 33.1091 21.3843 32.6289 19.4621 31.2777C18.0085 30.2576 16.2605 28.4023 16.1854 25.3449H16.0082C15.798 29.0018 14.4855 32.5424 12.4912 34.8242C13.5634 36.7332 15.6117 39.197 19.4591 41.0106C15.4406 41.0106 12.1999 38.514 10.2386 36.4976C9.31359 36.9868 8.39154 37.3268 7.82389 37.5147C3.82635 33.6848 1.33652 28.3128 1.33652 22.371C1.33051 10.7649 10.8393 1.32138 22.5256 1.32138C34.2119 1.32138 43.7207 10.7649 43.7207 22.371C43.7207 31.2001 38.2184 38.7764 30.4426 41.8965Z" fill="#281D5C"/>
<path d="M72.4642 8.4503C70.9324 7.78812 69.1484 7.45703 67.1181 7.45703C65.0878 7.45703 63.4209 7.73741 61.8201 8.30116C60.2553 8.86491 58.9548 9.62553 57.9216 10.583C56.9215 11.5107 56.3058 12.5696 56.0715 13.7597L60.6698 14.4547L61.1203 14.3563C61.1863 12.3369 61.754 10.765 62.8202 9.64044C63.9194 8.51593 65.3371 7.95218 67.067 7.95218C68.6648 7.95218 69.8992 8.53084 70.7642 9.68817C71.6653 10.8127 72.1128 12.5845 72.1128 14.9976V18.395C71.419 18.2339 70.7072 18.0907 69.9623 17.9774C69.1304 17.8461 68.1813 17.7775 67.1151 17.7775C64.8505 17.7775 62.7511 18.1742 60.8169 18.9677C58.9188 19.7611 57.387 20.9184 56.2187 22.4426C55.0534 23.9311 54.4707 25.7506 54.4707 27.9012C54.4707 29.9205 54.9693 31.6237 55.9694 33.0137C57.0026 34.4037 58.3511 35.4626 60.018 36.1904C61.7179 36.8854 63.565 37.2314 65.5653 37.2314C67.1992 37.2314 68.7309 36.9987 70.1635 36.5364C71.5962 36.074 72.8456 35.394 73.9118 34.5021C74.978 33.6103 75.795 32.5156 76.3596 31.227C76.9603 29.9026 77.2576 28.3993 77.2576 26.711V15.3943C77.2576 13.7388 76.8401 12.3339 76.0082 11.1766C75.1762 9.98645 73.9929 9.07669 72.4612 8.44732L72.4642 8.4503ZM70.5179 34.3082C69.4517 35.9309 68.0011 36.7392 66.169 36.7392C64.8685 36.7392 63.7543 36.3425 62.8202 35.5491C61.8861 34.7556 61.1713 33.6789 60.6728 32.3217C60.1742 30.9317 59.9219 29.3926 59.9219 27.7073C59.9219 24.8945 60.6037 22.6276 61.9702 20.9065C63.3698 19.1854 65.286 18.3264 67.7188 18.3264C68.6528 18.3264 69.5178 18.4755 70.3167 18.7738C71.0285 19.0005 71.6232 19.2898 72.1158 19.6358V27.4597C72.1158 30.4037 71.5812 32.6886 70.5179 34.3082ZM101.696 11.6747C102.597 12.9663 103.045 14.4219 103.045 16.0415V26.8124C103.045 28.9959 102.528 30.8661 101.495 32.4201C100.495 33.9742 99.1135 35.1673 97.3475 35.9935C95.5814 36.8197 93.5992 37.2344 91.4007 37.2344C89.8689 37.2344 88.4513 37.0524 87.1539 36.6885C85.8864 36.2918 84.7722 35.7609 83.8051 35.1017C82.838 34.4067 82.0901 33.6132 81.5555 32.7184C81.0239 31.7907 80.7566 30.8005 80.7566 29.7416C80.7566 28.7483 80.9909 27.8057 81.4564 26.9139C81.955 26.022 82.6728 25.2256 83.6068 24.5306C84.5409 23.8028 85.6882 23.239 87.0547 22.8423L87.4031 23.1406C86.9376 23.934 86.5862 24.8289 86.355 25.8192C86.1207 26.7796 86.0066 27.8385 86.0066 28.9959C86.0066 30.4843 86.2078 31.8236 86.6072 33.0167C87.0397 34.174 87.6735 35.0838 88.5054 35.7459C89.3704 36.4081 90.4696 36.7392 91.8031 36.7392C92.9685 36.7392 94.0016 36.4588 94.9027 35.8951C95.8367 35.2985 96.5515 34.3738 97.0501 33.1151C97.5847 31.8564 97.849 30.2188 97.849 28.2024V15.794C97.849 14.2399 97.6838 12.8649 97.3505 11.6747C97.0501 10.4846 96.5185 9.55692 95.7526 8.89474C95.0198 8.23256 94.0047 7.90147 92.7042 7.90147C90.8721 7.90147 89.5055 8.54575 88.6075 9.83731C87.7425 11.1289 87.307 12.7813 87.307 14.8007C87.307 15.1974 87.3251 15.5941 87.3581 15.9908C87.4242 16.3547 87.5083 16.7365 87.6074 17.1332L82.5586 18.1742L82.1592 18.0758C82.027 17.7447 81.9249 17.3987 81.8588 17.0348C81.8258 16.6381 81.8078 16.2742 81.8078 15.9431C81.8078 14.6516 82.1231 13.4942 82.7569 12.4681C83.3906 11.4092 84.2406 10.5174 85.3068 9.78958C86.373 9.02897 87.5713 8.4503 88.9049 8.05359C90.2384 7.65688 91.5869 7.45703 92.9535 7.45703C94.8847 7.45703 96.6026 7.83883 98.1013 8.59944C99.633 9.36006 100.834 10.3861 101.699 11.6777L101.696 11.6747ZM139.185 8.69788C137.551 7.87164 135.605 7.45703 133.337 7.45703C131.773 7.45703 130.274 7.68969 128.838 8.15202C127.685 8.50698 126.649 9.01704 125.721 9.66431C124.826 9.01704 123.868 8.52487 122.84 8.20273C121.375 7.7404 119.891 7.50774 118.392 7.50774C116.227 7.50774 114.227 7.90445 112.395 8.69788C110.596 9.4913 109.148 10.6486 108.046 12.1728C106.946 13.6941 106.397 15.5315 106.397 17.6821C106.397 19.8327 106.895 21.5538 107.895 23.1406C108.929 24.6947 110.361 26.019 112.193 27.1107C114.025 28.2024 116.176 29.0287 118.639 29.5924C117.605 29.6908 116.59 29.84 115.59 30.0398C114.59 30.2039 113.575 30.4544 112.542 30.7855V31.7281C113.941 31.2986 115.257 30.9824 116.488 30.7855C117.72 30.5857 118.786 30.4873 119.687 30.4873C121.252 30.4873 122.786 30.7527 124.285 31.2807C125.784 31.8086 127.066 32.5722 128.132 33.5625C129.232 34.5558 129.95 35.7131 130.28 37.0375L130.778 37.2851L135.377 35.7459C134.911 34.687 134.061 33.8101 132.827 33.1151C131.628 32.4201 130.13 31.8236 128.328 31.3284C126.562 30.8005 124.63 30.3023 122.531 29.84C120.366 29.3448 118.501 28.5991 116.933 27.6059C115.368 26.6126 114.167 25.2912 113.335 23.6358C112.503 21.9803 112.085 19.9132 112.085 17.4315C112.085 15.5464 112.319 13.9088 112.785 12.5188C113.284 11.1289 114.001 10.0551 114.935 9.29146C115.903 8.53084 117.083 8.14904 118.482 8.14904C119.45 8.14904 120.516 8.41451 121.681 8.94247C122.522 9.3004 123.387 9.93574 124.279 10.8425C123.603 11.5226 123.033 12.3071 122.579 13.2079C121.978 14.4666 121.681 15.9222 121.681 17.5747C121.681 19.7253 122.147 21.5299 123.081 22.9855C124.048 24.4411 125.345 25.5507 126.979 26.3113C128.613 27.0391 130.46 27.403 132.526 27.403C134.124 27.403 135.626 27.1704 137.026 26.708C138.458 26.2129 139.708 25.5179 140.774 24.6231C141.84 23.7312 142.672 22.6365 143.273 21.3479C143.906 20.0564 144.222 18.6008 144.222 16.9811C144.222 15.1288 143.789 13.4912 142.921 12.0684C142.056 10.6128 140.807 9.48832 139.173 8.69489L139.185 8.69788ZM138.137 22.1473C137.803 23.6029 137.221 24.7603 136.389 25.6223C135.59 26.4814 134.458 26.9139 132.992 26.9139C131.86 26.9139 130.926 26.6663 130.193 26.1682C129.46 25.673 128.877 24.9929 128.445 24.1339C128.012 23.242 127.694 22.2159 127.496 21.0556C127.328 19.8983 127.246 18.6724 127.246 17.3838C127.246 15.7283 127.412 14.1922 127.745 12.7694C128.078 11.3138 128.661 10.1565 129.493 9.29444C130.325 8.40258 131.493 7.95516 132.992 7.95516C134.157 7.95516 135.106 8.22063 135.839 8.74859C136.572 9.27654 137.14 9.98943 137.539 10.8813C137.972 11.7731 138.272 12.7843 138.437 13.9088C138.605 15.0005 138.686 16.1251 138.686 17.2824C138.686 19.0691 138.503 20.6917 138.137 22.1473ZM168.339 15.5971C168.907 17.351 169.189 19.3853 169.189 21.7029C169.189 25.4761 168.39 28.6499 166.789 31.233C165.192 33.8131 163.14 35.7996 160.644 37.1896L160.344 36.8436C161.209 35.7847 161.876 34.6274 162.344 33.3686C162.846 32.0771 163.176 30.5738 163.344 28.8527C163.546 27.1316 163.645 25.0466 163.645 22.5977C163.645 20.5456 163.561 18.6425 163.396 16.8887C163.263 15.102 162.996 13.5479 162.597 12.2236C162.197 10.8664 161.63 9.82538 160.897 9.09757C160.197 8.33696 159.281 7.95516 158.149 7.95516C156.683 7.95516 155.518 8.53382 154.65 9.69115C153.785 10.8485 153.151 12.486 152.751 14.6038C152.385 16.6888 152.202 19.1705 152.202 22.0489C152.202 24.3994 152.286 26.4993 152.451 28.3516C152.616 30.1711 152.935 31.7937 153.4 33.2165C153.866 34.6065 154.584 35.8145 155.551 36.8406L155.25 37.1866C153.652 36.5245 152.202 35.5491 150.901 34.2575C149.634 32.9332 148.619 31.3135 147.853 29.3926C147.12 27.4418 146.754 25.157 146.754 22.5441C146.754 20.1936 147.054 18.0937 147.655 16.2414C148.255 14.3563 149.087 12.7664 150.153 11.4779C151.22 10.1535 152.436 9.16319 153.803 8.50101C155.202 7.80602 156.65 7.46001 158.149 7.46001C159.647 7.46001 161.164 7.77321 162.498 8.40258C163.864 8.99914 165.047 9.9089 166.045 11.1318C167.045 12.322 167.811 13.8134 168.342 15.6001L168.339 15.5971ZM191.844 24.2323C192.61 25.3896 192.991 26.714 192.991 28.2024C192.991 29.8579 192.508 31.3612 191.544 32.7184C190.613 34.0756 189.261 35.1673 187.495 35.9935C185.762 36.8197 183.696 37.2344 181.299 37.2344C179.2 37.2344 177.334 36.9212 175.701 36.2918C174.07 35.6296 172.784 34.7706 171.853 33.7117C170.919 32.6528 170.454 31.4954 170.454 30.2367C170.454 29.4761 170.655 28.7304 171.054 28.0026C171.487 27.242 172.138 26.5291 173.003 25.8699C173.904 25.2077 175.103 24.6469 176.602 24.1816L177.001 24.4799C176.569 25.1749 176.268 25.9683 176.1 26.8632C175.968 27.7222 175.899 28.5335 175.899 29.2941C175.899 31.5432 176.382 33.3478 177.346 34.7049C178.314 36.0621 179.677 36.7392 181.446 36.7392C182.677 36.7392 183.762 36.4081 184.693 35.7459C185.627 35.0838 186.342 34.1591 186.84 32.966C187.339 31.743 187.588 30.3202 187.588 28.6976C187.588 26.1175 186.987 24.116 185.789 22.6932C184.624 21.2704 183.089 20.5605 181.191 20.5605H180.389V19.8655H181.089C182.689 19.8655 183.906 19.3703 184.738 18.3771C185.606 17.351 186.038 16.1101 186.038 14.6545C186.038 13.7627 185.873 12.9006 185.54 12.0744C185.239 11.2154 184.756 10.404 184.089 9.64343V9.24671L188.087 7.46001C188.919 8.05657 189.585 8.90071 190.087 9.99241C190.585 11.0841 190.835 12.1937 190.835 13.3182C190.835 14.8395 190.303 16.2474 189.237 17.5359C188.204 18.7947 186.456 19.6537 183.99 20.1161V20.2145C185.723 20.3129 187.27 20.7275 188.636 21.4553C190.003 22.1503 191.069 23.078 191.835 24.2353L191.844 24.2323ZM218.433 21.6999C218.433 25.4732 217.631 28.6469 216.033 31.23C214.433 33.8101 212.384 35.7966 209.885 37.1866L209.585 36.8406C210.453 35.7817 211.117 34.6244 211.585 33.3657C212.087 32.0741 212.417 30.5708 212.585 28.8497C212.787 27.1286 212.886 25.0436 212.886 22.5948C212.886 20.5426 212.802 18.6396 212.637 16.8857C212.504 15.099 212.237 13.5449 211.838 12.2206C211.438 10.8634 210.871 9.82239 210.138 9.09459C209.438 8.33398 208.522 7.95218 207.39 7.95218C205.924 7.95218 204.759 8.53084 203.894 9.68817C203.026 10.8455 202.395 12.4831 201.992 14.6008C201.626 16.6858 201.443 19.1675 201.443 22.0459C201.443 24.3964 201.527 26.4963 201.692 28.3486C201.857 30.1681 202.176 31.7907 202.641 33.2135C203.11 34.6035 203.825 35.8116 204.789 36.8376L204.488 37.1837C202.887 36.5215 201.44 35.5461 200.139 34.2545C198.872 32.9302 197.857 31.3105 197.091 29.3896C196.358 27.4388 195.992 25.154 195.992 22.5411C195.992 20.1906 196.292 18.0907 196.893 16.2384C197.493 14.3533 198.325 12.7634 199.391 11.4749C200.458 10.1505 201.674 9.16021 203.041 8.49803C204.44 7.80304 205.888 7.45703 207.387 7.45703C208.885 7.45703 210.402 7.77023 211.736 8.3996C213.102 8.99616 214.285 9.90591 215.283 11.1289C216.283 12.319 217.049 13.8104 217.583 15.5971C218.148 17.351 218.433 19.3853 218.433 21.7029V21.6999Z" fill="#281D5C"/>
</g>
<defs>
<clipPath id="clip0_893_58">
<rect width="219" height="44.7421" fill="white"/>
</clipPath>
</defs>
</svg>
