<svg width="406" height="50" viewBox="0 0 406 50" fill="none" xmlns="http://www.w3.org/2000/svg">
<g clip-path="url(#clip0_907_19)">
<path d="M289.143 13.5104L276.753 41.6615L263.161 13.5104H262.734V37.9427L267.275 40.3542H257.116L261.658 37.9427V11.5573L258.145 9.01562H266.974L278.768 33.3594H279.369L289.918 9.01562H298.363L295.019 11.3438V38.0156L298.363 40.3437H286.358L289.66 38.0156V13.5104H289.143ZM326.022 40.349H299.956L303.258 37.8073V11.5573L299.956 9.01562H324.524V9.81771L325.727 18.1562L319.466 9.90104H308.622V23.5781H315.31L318.738 18.1198V29.9323L315.31 24.4271H308.622V39.4583H320.885L327.188 30.0573L326.028 39.5417V40.3437H326.022V40.349ZM342.131 40.349H329.14L332.441 37.8073V11.5573L329.14 9.01562H342.131C352.59 9.01562 360.396 15.7865 360.396 24.4271C360.396 33.0677 352.59 40.349 342.131 40.349ZM337.8 9.90625V39.4583H341.83C349.288 39.4583 354.521 33.2344 354.521 24.4271C354.521 15.6198 349.288 9.90625 341.872 9.90625H337.8ZM362.638 40.349L365.94 38.0208V11.349L362.638 9.02083H374.643L371.299 11.349V38.0208L374.643 40.349H362.638ZM393.953 40.8594C384.606 40.8594 376.842 33.4948 376.842 24.4323C376.842 15.3698 384.474 8.34375 393.821 8.34375C397.597 8.34375 401.838 9.19271 404.37 10.4167V11.1354L405.53 19.3073C402.487 12.7031 398.758 9.22917 393.821 9.27604C387.091 9.27604 382.676 15.4583 382.676 24.4323C382.676 33.4062 387.091 39.9271 393.953 39.9271C398.879 39.9688 402.698 36.3698 406 29.0052L404.586 38.0677V38.7865C402.06 40.0573 397.766 40.901 393.953 40.8594Z" fill="white"/>
<path d="M20.2219 9.44336C18.5024 8.70378 16.4981 8.33398 14.2142 8.33398C11.9304 8.33398 10.0579 8.64648 8.2593 9.27669C6.50288 9.9069 5.03657 10.7559 3.87618 11.8288C2.75271 12.8652 2.06175 14.0475 1.79802 15.3809L6.96704 16.1569L7.47339 16.0475C7.54724 13.7923 8.18545 12.0319 9.38277 10.7767C10.617 9.52148 12.2099 8.89128 14.1562 8.89128C15.9495 8.89128 17.342 9.53711 18.3125 10.8288C19.3252 12.084 19.8263 14.0632 19.8263 16.7611V20.5579C19.0457 20.3757 18.2439 20.2194 17.4106 20.0892C16.477 19.9434 15.4115 19.8652 14.2089 19.8652C11.6614 19.8652 9.30365 20.3079 7.13055 21.1934C4.99965 22.0788 3.27488 23.3757 1.96153 25.0788C0.653454 26.7402 -0.00585938 28.7767 -0.00585938 31.1777C-0.00585938 33.4329 0.553239 35.3392 1.67671 36.8913C2.8371 38.4434 4.35088 39.6257 6.22861 40.4434C8.13798 41.2194 10.2161 41.6048 12.4631 41.6048C14.2986 41.6048 16.0234 41.3444 17.6321 40.8288C19.2408 40.3132 20.6438 39.5527 21.8464 38.5579C23.0437 37.5632 23.9615 36.3392 24.5997 34.8965C25.2749 33.4173 25.6072 31.735 25.6072 29.8496V17.2038C25.6072 15.3548 25.1377 13.7819 24.2041 12.4902C23.2705 11.1621 21.9414 10.1413 20.2166 9.43815L20.2219 9.44336ZM18.0382 38.3392C16.8409 40.1517 15.2111 41.0579 13.1488 41.0579C11.6877 41.0579 10.4324 40.6152 9.38277 39.7298C8.33314 38.8444 7.53141 37.6413 6.96704 36.1257C6.40794 34.5736 6.12312 32.8548 6.12312 30.9694C6.12312 27.8236 6.88792 25.2923 8.42808 23.3704C9.99988 21.4486 12.1572 20.485 14.8894 20.485C15.939 20.485 16.9095 20.6517 17.8114 20.985C18.6132 21.2402 19.2777 21.5632 19.8316 21.9486V30.6934C19.8316 33.985 19.2303 36.5371 18.0382 38.3496V38.3392ZM53.0768 13.0475C54.0895 14.4902 54.5906 16.1152 54.5906 17.9277V29.9642C54.5906 32.4017 54.0104 34.4954 52.85 36.2298C51.7265 37.9642 50.1758 39.2975 48.1873 40.2246C46.2041 41.1465 43.973 41.61 41.5045 41.61C39.785 41.61 38.1921 41.4069 36.7311 41.0007C35.307 40.5579 34.0569 39.9642 32.9651 39.2298C31.8785 38.4538 31.0399 37.5684 30.4386 36.5684C29.8426 35.5319 29.5419 34.4225 29.5419 33.2402C29.5419 32.1309 29.8057 31.0788 30.3278 30.0788C30.8869 29.084 31.6939 28.1934 32.7436 27.4173C33.7932 26.6048 35.0854 25.9746 36.6203 25.5319L37.0106 25.8652C36.4885 26.7507 36.0929 27.7507 35.8344 28.86C35.5707 29.9329 35.4441 31.1152 35.4441 32.4121C35.4441 34.0736 35.6709 35.5736 36.1193 36.9069C36.6045 38.1986 37.3166 39.2142 38.2502 39.959C39.2207 40.6986 40.4549 41.0684 41.9581 41.0684C43.2662 41.0684 44.4266 40.7559 45.4446 40.1257C46.4942 39.459 47.2959 38.4277 47.8603 37.0163C48.4616 35.61 48.757 33.7819 48.757 31.5267V17.6621C48.757 15.9277 48.5724 14.3913 48.1979 13.0579C47.8603 11.7298 47.2643 10.6934 46.3993 9.95378C45.5764 9.21419 44.4372 8.8444 42.9708 8.8444C40.9138 8.8444 39.3736 9.56315 38.3662 11.0059C37.3957 12.4486 36.9052 14.2975 36.9052 16.5527C36.9052 16.9954 36.9263 17.4382 36.9632 17.8809C37.037 18.2871 37.132 18.7142 37.2427 19.1569L31.5673 20.3184L31.119 20.209C30.9713 19.8392 30.8553 19.4538 30.7814 19.0475C30.7445 18.6048 30.7234 18.1986 30.7234 17.8288C30.7234 16.3861 31.0768 15.0944 31.7889 13.9434C32.5009 12.7611 33.4556 11.7611 34.6529 10.9486C35.8503 10.0996 37.1953 9.45378 38.6985 9.01107C40.1964 8.56836 41.7102 8.3444 43.2504 8.3444C45.4235 8.3444 47.354 8.77148 49.0365 9.62044C50.756 10.4694 52.1063 11.6152 53.0821 13.0579L53.0768 13.0475ZM95.2148 9.7194C93.3793 8.79753 91.1904 8.33398 88.6428 8.33398C86.8811 8.33398 85.1985 8.5944 83.5845 9.11003C82.287 9.50586 81.1214 10.0788 80.0823 10.7975C79.0748 10.0736 77.9988 9.52669 76.8437 9.16211C75.1981 8.64648 73.5261 8.38607 71.8435 8.38607C69.4119 8.38607 67.1597 8.82878 65.1027 9.71419C63.0825 10.5996 61.4527 11.8965 60.2132 13.5996C58.979 15.2975 58.3619 17.3548 58.3619 19.7559C58.3619 22.1569 58.9209 24.084 60.0444 25.8548C61.2048 27.5892 62.8188 29.0736 64.8759 30.2923C66.9329 31.5111 69.3539 32.4382 72.1178 33.0632C70.9574 33.1725 69.8181 33.3392 68.6893 33.5632C67.5659 33.7454 66.4266 34.0267 65.2609 34.3965V35.4486C66.8327 34.9694 68.3148 34.6152 69.6968 34.3965C71.0787 34.1725 72.2813 34.0632 73.294 34.0632C75.0504 34.0632 76.7752 34.36 78.463 34.9486C80.1456 35.5371 81.5908 36.3913 82.7881 37.5007C84.0223 38.61 84.8293 39.9017 85.2038 41.3861L85.7629 41.6621L90.9319 39.9434C90.4098 38.7611 89.4551 37.7819 88.0679 37.0007C86.7229 36.2246 85.035 35.5579 83.0096 35.0059C81.0264 34.4173 78.8533 33.86 76.4956 33.3444C74.0641 32.7923 71.9648 31.959 70.2031 30.8496C68.4414 29.7402 67.0912 28.2611 66.1576 26.4121C65.224 24.5632 64.7546 22.2507 64.7546 19.4798C64.7546 17.3704 65.0183 15.5423 65.5405 13.9902C66.0996 12.4382 66.9066 11.235 67.9562 10.3861C69.0427 9.53711 70.3719 9.11003 71.9437 9.11003C73.0303 9.11003 74.2276 9.4069 75.5409 9.99544C76.4851 10.3965 77.4608 11.1048 78.463 12.1204C77.7035 12.8809 77.06 13.7559 76.5536 14.7663C75.8785 16.1725 75.5462 17.7975 75.5462 19.6465C75.5462 22.0475 76.0684 24.0684 77.118 25.6934C78.2046 27.3184 79.6656 28.5579 81.5011 29.4121C83.3366 30.2246 85.4148 30.6309 87.7356 30.6309C89.5289 30.6309 91.2168 30.3704 92.7938 29.8548C94.4026 29.3027 95.8056 28.5267 97.0082 27.5267C98.2055 26.5319 99.1443 25.3079 99.8195 23.8652C100.532 22.4225 100.885 20.7975 100.885 18.985C100.885 16.9173 100.4 15.084 99.4239 13.4954C98.4534 11.8704 97.0451 10.61 95.2096 9.72461H95.2201L95.2148 9.7194ZM94.0386 24.7507C93.6641 26.3757 93.0101 27.6725 92.0712 28.6361C91.1746 29.5944 89.9034 30.0788 88.2525 30.0788C86.9813 30.0788 85.9317 29.8027 85.1089 29.2454C84.2861 28.6934 83.632 27.9329 83.1415 26.9694C82.6562 25.9746 82.2976 24.8288 82.076 23.5319C81.8862 22.2402 81.7965 20.8704 81.7965 19.4277C81.7965 17.5788 81.9811 15.86 82.3556 14.2715C82.7301 12.6465 83.3841 11.3496 84.323 10.3861C85.2566 9.39128 86.5699 8.89128 88.2578 8.89128C89.5658 8.89128 90.6366 9.18815 91.4594 9.77669C92.2822 10.3652 92.9204 11.1621 93.3688 12.1621C93.854 13.1569 94.1916 14.2871 94.3762 15.5475C94.5661 16.7663 94.6557 18.0267 94.6557 19.3184C94.6557 21.3132 94.45 23.1309 94.0386 24.7559V24.7507ZM127.98 17.4329C128.618 19.3913 128.935 21.6673 128.935 24.2559C128.935 28.4746 128.038 32.0215 126.24 34.9069C124.446 37.7923 122.136 40.0111 119.33 41.5632L118.992 41.1777C119.963 39.9954 120.712 38.7038 121.239 37.2923C121.804 35.8496 122.173 34.1673 122.363 32.2454C122.59 30.3236 122.7 27.9902 122.7 25.2559C122.7 22.9642 122.605 20.834 122.421 18.8757C122.273 16.8809 121.972 15.1413 121.524 13.6621C121.076 12.1465 120.438 10.9798 119.615 10.1673C118.829 9.31836 117.8 8.89128 116.524 8.89128C114.878 8.89128 113.565 9.53711 112.589 10.8288C111.619 12.1204 110.907 13.9538 110.453 16.3184C110.041 18.6465 109.836 21.4225 109.836 24.6361C109.836 27.2611 109.931 29.61 110.115 31.6777C110.3 33.709 110.659 35.5267 111.181 37.1152C111.703 38.6673 112.51 40.0163 113.597 41.1673L113.259 41.5527C111.466 40.8132 109.831 39.7246 108.369 38.2767C106.945 36.7975 105.806 34.985 104.941 32.8392C104.118 30.6569 103.707 28.1048 103.707 25.1882C103.707 22.5632 104.044 20.2142 104.72 18.1465C105.395 16.0423 106.328 14.2611 107.526 12.8236C108.723 11.3444 110.089 10.235 111.629 9.49544C113.201 8.7194 114.831 8.33398 116.513 8.33398C118.196 8.33398 119.905 8.68294 121.403 9.38607C122.938 10.0527 124.267 11.0684 125.39 12.4382C126.514 13.7663 127.374 15.4329 127.975 17.4329H127.98ZM154.4 27.0788C155.26 28.3704 155.687 29.8496 155.687 31.5163C155.687 33.3652 155.144 35.0475 154.063 36.5632C153.018 38.0788 151.499 39.2975 149.511 40.2246C147.564 41.1465 145.238 41.61 142.548 41.61C140.191 41.61 138.091 41.2611 136.256 40.5579C134.42 39.8184 132.98 38.86 131.931 37.6725C130.881 36.4902 130.359 35.1986 130.359 33.7871C130.359 32.9382 130.586 32.1048 131.034 31.2923C131.519 30.4434 132.252 29.6465 133.223 28.9069C134.236 28.1673 135.581 27.5423 137.269 27.0215L137.717 27.3548C137.232 28.1309 136.894 29.0163 136.704 30.0163C136.556 30.9746 136.477 31.8809 136.477 32.735C136.477 35.2507 137.021 37.2663 138.102 38.7819C139.188 40.2975 140.723 41.0527 142.712 41.0527C144.094 41.0527 145.312 40.6829 146.362 39.9434C147.411 39.2038 148.213 38.1725 148.777 36.8392C149.337 35.4746 149.616 33.8809 149.616 32.0684C149.616 29.1829 148.941 26.9486 147.596 25.36C146.288 23.7715 144.563 22.9746 142.427 22.9746H141.525V22.1986H142.311C144.11 22.1986 145.476 21.6465 146.415 20.5371C147.39 19.3913 147.876 18.0059 147.876 16.3757C147.876 15.3809 147.691 14.4173 147.316 13.4902C146.979 12.5319 146.436 11.6257 145.687 10.7715V10.3288L150.181 8.33398C151.114 9.00065 151.863 9.94336 152.427 11.1621C152.987 12.3809 153.266 13.6204 153.266 14.8809C153.266 16.5788 152.67 18.1517 151.473 19.5944C150.312 21.0007 148.345 21.959 145.576 22.4798V22.5892C147.522 22.6986 149.263 23.1621 150.798 23.9746C152.333 24.7507 153.53 25.7871 154.395 27.0788H154.405H154.4ZM184.285 24.2507C184.285 28.4694 183.384 32.0163 181.59 34.9017C179.792 37.7871 177.487 40.0059 174.681 41.5579L174.343 41.1725C175.319 39.9902 176.063 38.6934 176.59 37.2871C177.154 35.8444 177.524 34.1621 177.713 32.2402C177.94 30.3184 178.051 27.985 178.051 25.2507C178.051 22.959 177.956 20.8288 177.771 18.8704C177.624 16.8757 177.323 15.1361 176.875 13.6569C176.426 12.1413 175.788 10.9746 174.965 10.1621C174.18 9.31315 173.151 8.88607 171.875 8.88607C170.229 8.88607 168.916 9.5319 167.945 10.8236C166.969 12.1152 166.262 13.9486 165.809 16.3132C165.397 18.6413 165.192 21.4173 165.192 24.6309C165.192 27.2559 165.287 29.6048 165.471 31.6725C165.656 33.7038 166.015 35.5215 166.537 37.11C167.064 38.6621 167.866 40.0111 168.952 41.1621L168.615 41.5475C166.816 40.8079 165.186 39.7194 163.725 38.2767C162.301 36.7975 161.162 34.985 160.297 32.8392C159.474 30.6621 159.063 28.1048 159.063 25.1882C159.063 22.5632 159.4 20.2142 160.075 18.1465C160.751 16.0423 161.684 14.2611 162.882 12.8236C164.079 11.3444 165.445 10.235 166.985 9.49544C168.557 8.7194 170.187 8.33398 171.869 8.33398C173.552 8.33398 175.256 8.68294 176.759 9.38607C178.294 10.0527 179.623 11.0684 180.746 12.4382C181.87 13.7663 182.729 15.4329 183.331 17.4329C183.964 19.3913 184.285 21.6673 184.285 24.2559V24.2507Z" fill="white"/>
<path d="M220.569 0C206.607 0 195.251 11.2135 195.251 25C195.251 38.7865 206.607 50 220.569 50C234.53 50 245.886 38.7865 245.886 25C245.886 11.2135 234.53 0 220.569 0ZM227.552 47.4687C226.286 46.7969 223.148 45.0104 222.288 43.349C221.56 41.9427 221.687 41.0469 221.834 38.6458C218.786 38.6458 214.967 36.7292 213.627 34.8177C212.557 36.9896 211.628 37.9844 210.151 39.0312C210.895 40.9479 212.868 44.3906 217.884 46.7396C212.377 46.7396 207.841 42.4115 206.338 40.7865C205.104 41.0625 203.928 41.1615 203.342 41.1979C199.275 36.9792 196.77 31.2708 196.77 25C196.77 12.0417 207.446 1.5 220.569 1.5C233.692 1.5 244.367 12.0417 244.367 25C244.367 35.5625 237.278 44.5156 227.552 47.4687Z" fill="white"/>
<path d="M226.75 22.7917C227.631 19.3542 226.571 16.5729 223.058 16.1094C218.812 16.1094 218.596 20.6927 214.967 21.6458C213.991 24.9635 215.605 27.5052 218.96 27.5625C218.474 27.8854 215.362 28.9115 213.559 27.1198C213.627 34.8073 220.405 36.7188 223.343 36.7188C225.447 36.7188 226.133 35.9635 226.133 34.6458C226.133 33.5937 223.96 33.6823 223.638 33.7135C223.533 33.5312 223.406 33.0677 223.696 32.724C224.308 32.724 225.083 32.7188 225.664 32.6302C226.175 32.5573 226.492 32.151 226.544 31.7083C226.56 31.5521 226.602 31.3281 226.608 31.2187C225.553 31.5365 222.198 31.2448 222.198 31.2448L222.246 30.7396C223.48 30.7396 224.556 29.6406 225.194 29.6406C225.832 29.6406 226.27 30.2917 226.27 30.2917L226.428 29.5L225.948 29.2812C225.948 29.2812 225.131 28.974 225.131 27.7083C226.001 27.8958 226.734 27.8698 227.23 27.7396C227.52 27.6615 227.736 27.4219 227.689 27.1302C227.568 26.3594 227.088 24.5885 226.745 22.7917H226.75ZM224.276 23.4688L222.778 25.0365C222.778 25.0365 221.017 22.4115 217.314 22.4115C217.314 22.4115 221.149 20.7604 224.118 21.8073C224.735 22.026 224.894 22.8958 224.276 23.4688Z" fill="white"/>
<path d="M210.837 20.9896C215.094 20.9896 218.248 17.0885 218.886 16.2292C218.928 16.1719 218.876 16.0938 218.807 16.1094C217.779 16.3385 213.042 17.2448 211.908 14.6979C214.514 15.8281 218.501 15.401 220.268 13.9219C219.408 13.349 218.944 12.4792 219.182 11.5208C219.72 12.3229 222.257 15.276 224.994 15.276C227.441 15.276 229.182 12.4219 229.372 10.901C228.47 10.625 222.32 10.5 222.32 10.5C214.313 10.5 205.927 12.4062 205.927 16.6458C205.927 19.3542 207.768 20.9896 210.837 20.9896Z" fill="white"/>
<path d="M229.604 10.0685L230.806 6.22479C230.806 6.22479 230.253 5.43312 229.651 5.29249C229.456 6.67791 228.881 8.01645 227.858 7.83937C228.174 6.31333 228.607 4.62062 228.607 4.62062C227.832 4.08937 226.872 4.1102 224.957 4.38624C224.957 4.38624 225.031 5.94874 224.957 7.55812C223.723 7.72479 223.29 6.18312 223.153 4.64145C222.483 4.69874 221.428 4.85499 220.78 5.06854C220.716 5.88624 220.922 6.7977 221.202 7.83416C220.358 7.94354 219.234 8.13624 219.234 8.13624C219.234 8.13624 218.854 6.77687 218.796 5.60499C218.185 5.77687 217.14 6.07374 216.502 6.29249C216.502 6.9227 216.723 7.9227 216.982 8.51645C216.56 8.58937 215.6 8.81854 215.236 8.88104C214.888 8.30812 214.672 7.69354 214.519 7.00083C213.253 7.46958 212.783 7.74041 212.609 7.82374C212.757 8.77687 212.973 9.36541 213.385 10.3081C217.789 9.22999 225.099 9.22999 229.604 10.0633V10.0685Z" fill="white"/>
<path d="M229.958 11.2812C229.958 12.2656 229.662 14.1562 227.294 15.75C228.491 16.099 229.71 17.4896 230.068 18.6562C230.068 18.6562 232.542 16.5625 232.542 14.3281C232.542 12.4167 230.627 11.2865 229.958 11.2865V11.2812Z" fill="white"/>
<path d="M228.692 25.7708C228.692 25.7708 228.908 27.5313 228.096 30.4635C229.108 29.276 230.084 28.1302 230.079 25.5312C229.678 25.7604 229.304 25.8125 228.692 25.7708Z" fill="white"/>
<path d="M213.284 21.7441C211.027 23.2493 201.738 20.7389 201.738 28.1816C201.738 30.9212 203.843 32.791 206.739 32.791C211.29 32.791 212.155 28.9056 212.155 27.9212C209.935 28.4889 206.786 28.765 205.926 26.2858C209.771 27.5983 213.284 26.9681 213.284 21.7441Z" fill="white"/>
</g>
<defs>
<clipPath id="clip0_907_19">
<rect width="406" height="50" fill="white"/>
</clipPath>
</defs>
</svg>
