<svg width="370" height="77" viewBox="0 0 370 77" fill="none" xmlns="http://www.w3.org/2000/svg">
<path d="M11.2192 32.374C8.99638 32.374 7.04388 32.0014 5.36177 31.2561C3.67965 30.4811 2.35798 29.4824 1.39676 28.2602C0.465589 27.038 0 25.6965 0 24.2358C0 23.5502 0.120152 22.8496 0.360456 22.1342C0.600761 21.4187 0.976233 20.7331 1.48688 20.0772H7.56956C7.47945 20.4648 7.40433 20.9715 7.34427 21.5976C7.31422 22.1938 7.29922 22.7303 7.29922 23.2073C7.29922 24.3699 7.46444 25.4729 7.79484 26.5163C8.1553 27.5596 8.69598 28.3943 9.41689 29.0203C10.1679 29.6463 11.1141 29.9594 12.2555 29.9594C13.2167 29.9594 13.9977 29.7209 14.5984 29.2439C15.2292 28.7669 15.7099 28.1409 16.0403 27.3659C16.4007 26.5908 16.641 25.7263 16.7612 24.7724C16.9114 23.8184 16.9865 22.8496 16.9865 21.8659V4.60569C16.9865 4.30759 16.9264 4.0393 16.8062 3.80082C16.7161 3.53252 16.5209 3.30895 16.2205 3.13008C15.9201 2.95122 15.4695 2.86179 14.8688 2.86179C14.5984 2.86179 14.3582 2.8767 14.1479 2.9065C13.9676 2.9065 13.7274 2.92141 13.427 2.95122V1.60975C14.0878 1.37127 14.8838 1.13279 15.815 0.894312C16.7462 0.655826 17.6924 0.447156 18.6536 0.268294C19.6448 0.0894315 20.5159 0 21.2669 0C22.1981 0 22.8739 0.134146 23.2944 0.402439C23.745 0.640923 24.0454 0.953931 24.1956 1.34147C24.3457 1.729 24.4209 2.13144 24.4209 2.54878V20.748C24.4209 22.477 24.0905 24.0569 23.4296 25.4878C22.7688 26.8889 21.8376 28.1111 20.6361 29.1545C19.4346 30.168 18.0378 30.958 16.4458 31.5244C14.8538 32.0908 13.1116 32.374 11.2192 32.374ZM5.90245 16.5447C4.64086 16.5447 3.72471 16.2168 3.15398 15.561C2.58327 14.8754 2.2979 14.1152 2.2979 13.2805C2.2979 12.0285 2.71844 10.9702 3.5595 10.1057C4.4306 9.21138 5.557 8.54065 6.93876 8.0935C8.32053 7.61652 9.80741 7.37805 11.3994 7.37805C13.1116 7.37805 14.7186 7.54203 16.2205 7.86992C17.7224 8.16804 19.0741 8.6152 20.2756 9.21138C21.4772 9.7778 22.4834 10.4485 23.2944 11.2236L20.4108 13.9065C19.5397 12.7141 18.5184 11.6856 17.3469 10.8211C16.1754 9.95666 14.9439 9.52439 13.6522 9.52439C12.7511 9.52439 12.0452 9.70325 11.5346 10.061C11.0539 10.3889 10.6935 10.8063 10.4532 11.313C10.2429 11.79 10.0777 12.3116 9.95758 12.8781C9.86746 13.3848 9.68724 13.9214 9.41689 14.4878C9.17661 15.0542 8.7861 15.5461 8.24541 15.9634C7.70473 16.351 6.92376 16.5447 5.90245 16.5447ZM39.7191 32.374C37.4663 32.374 35.4087 31.9567 33.5463 31.122C31.6839 30.2873 30.1971 29.065 29.0857 27.4553C27.9743 25.8157 27.4186 23.8482 27.4186 21.5528C27.4186 20.4499 27.6138 19.4512 28.0043 18.5569C28.4248 17.6626 28.9956 16.9472 29.7165 16.4106C30.4674 15.874 31.3235 15.6057 32.2847 15.6057C33.0056 15.6057 33.6514 15.7697 34.2222 16.0976C34.8229 16.3957 35.2885 16.8577 35.6189 17.4837C35.9794 18.0799 36.1596 18.7954 36.1596 19.6301C36.1596 20.2263 36.0545 20.7927 35.8442 21.3293C35.664 21.8659 35.4687 22.4323 35.2585 23.0285C35.0783 23.6246 34.9881 24.355 34.9881 25.2195C34.9881 26.8889 35.4687 28.1111 36.43 28.8862C37.4212 29.6315 38.5626 30.0041 39.8543 30.0041C41.4763 30.0041 42.7379 29.3781 43.6391 28.126C44.5702 26.8442 45.0358 25.2195 45.0358 23.252C45.0358 21.4038 44.7805 19.8238 44.2699 18.5122C43.7592 17.2006 43.1435 16.023 42.4225 14.9797C41.7016 13.9363 40.9657 12.9228 40.2148 11.939C39.4938 10.9553 38.878 9.92683 38.3674 8.85366C37.8567 7.75066 37.6014 6.49863 37.6014 5.09756C37.6014 4.11382 37.7967 3.1897 38.1872 2.32521C38.5776 1.4309 39.1334 0.655826 39.8543 0H41.8368C41.8067 0.178863 41.7767 0.37263 41.7467 0.581299C41.7166 0.760161 41.7016 0.953931 41.7016 1.1626C41.7016 2.17615 41.9569 3.14499 42.4676 4.06911C43.0083 4.96342 43.6991 5.87261 44.5402 6.79675C45.4113 7.69106 46.3124 8.6152 47.2436 9.56911C48.2048 10.523 49.106 11.5664 49.947 12.6992C50.7881 13.8022 51.4791 15.0393 52.0198 16.4106C52.5605 17.752 52.8308 19.2724 52.8308 20.9715C52.8308 22.4323 52.5303 23.8482 51.9297 25.2195C51.3286 26.561 50.4577 27.7683 49.3163 28.8415C48.2048 29.9146 46.8381 30.7791 45.2161 31.435C43.594 32.061 41.7617 32.374 39.7191 32.374ZM59.1398 31.7033C58.0283 29.6463 57.1573 27.5298 56.5265 25.3537C55.8957 23.1477 55.5803 20.897 55.5803 18.6016C55.5803 15.7398 56.0007 13.2954 56.8419 11.2683C57.6827 9.24121 58.8695 7.5718 60.4014 6.26017C61.9334 4.94851 63.7654 3.94987 65.8984 3.26423C68.0309 2.57859 70.4041 2.16125 73.0174 2.0122L77.478 1.78862C78.7693 1.69919 79.8358 1.60975 80.6771 1.52033C81.548 1.4309 82.2541 1.28184 82.7947 1.07317C83.3354 0.8645 83.7558 0.551492 84.0563 0.134147H85.4081C85.3476 1.80352 84.9421 3.21951 84.1915 4.38212C83.4706 5.51489 82.3892 6.39431 80.9474 7.02033C79.5056 7.64634 77.6582 8.0339 75.4054 8.18293L69.5029 8.45122C67.3699 8.63008 65.5077 9.04741 63.9159 9.70325C62.3537 10.3591 61.1223 11.2832 60.2212 12.4756C59.3201 13.6382 58.764 15.1138 58.5541 16.9024L57.8332 16.813C58.7041 15.4715 59.6201 14.4282 60.5817 13.6829C61.5729 12.9377 62.6241 12.4011 63.7357 12.0732C64.8769 11.7453 66.0633 11.5813 67.2952 11.5813C69.3074 11.5813 70.9448 11.939 72.2064 12.6545C73.468 13.3699 74.4438 14.4878 75.1351 16.0081C75.7054 14.935 76.4566 14.0854 77.3879 13.4594C78.3187 12.8035 79.3402 12.3266 80.4518 12.0285C81.5931 11.7303 82.7195 11.5813 83.8311 11.5813C86.1136 11.5813 88.051 11.9539 89.6434 12.6992C91.2352 13.4445 92.4518 14.5176 93.293 15.9187C94.1337 17.29 94.5546 18.9594 94.5546 20.9268C94.5546 22.9539 94.209 24.8171 93.5183 26.5163C92.8271 28.1856 91.8512 29.9146 90.5896 31.7033H84.2366C84.7773 30.5705 85.2427 29.5122 85.6333 28.5285C86.0235 27.5447 86.3092 26.5163 86.4894 25.4431C86.6993 24.3401 86.8048 23.103 86.8048 21.7317C86.8048 20.1816 86.6394 18.8401 86.3092 17.7073C86.0086 16.5447 85.5279 15.6504 84.8674 15.0244C84.2366 14.3686 83.4102 14.0407 82.3892 14.0407C81.3376 14.0407 80.5419 14.3388 80.0012 14.935C79.4902 15.5312 79.1451 16.351 78.9649 17.3943C78.7847 18.4079 78.6946 19.5705 78.6946 20.8821V26.3374H71.4855V21.5528C71.4855 20.2412 71.38 19.019 71.1701 17.8862C70.9898 16.7534 70.5992 15.8293 69.9986 15.1138C69.4277 14.3984 68.5716 14.0407 67.4303 14.0407C65.9885 14.0407 64.9522 14.6965 64.3214 16.0081C63.6906 17.29 63.3752 18.9146 63.3752 20.8821C63.3752 22.9092 63.6005 24.7724 64.0511 26.4715C64.5016 28.1409 65.2225 29.8848 66.2138 31.7033H59.1398ZM109.844 32.374C107.531 32.374 105.428 31.9567 103.536 31.122C101.643 30.2575 100.142 29.0203 99.0301 27.4106C97.919 25.8008 97.363 23.8632 97.363 21.5976V10.8659C97.363 8.60026 97.9037 6.6626 98.985 5.05285C100.066 3.44309 101.508 2.22087 103.311 1.38618C105.113 0.52168 107.066 0.0894325 109.168 0.0894325C111.241 0.0894325 113.088 0.462061 114.71 1.20732C116.362 1.95257 117.564 3.15989 118.314 4.82927C119.096 3.13008 120.237 1.92276 121.739 1.20732C123.271 0.462061 125.013 0.0894325 126.965 0.0894325C129.038 0.0894325 130.885 0.476966 132.507 1.25203C134.129 1.99729 135.421 3.14499 136.382 4.69512C137.344 6.24528 137.824 8.18293 137.824 10.5081V16.6341C137.824 18.9892 137.614 21.0759 137.193 22.8943C136.773 24.7128 136.232 26.3523 135.571 27.813C134.94 29.2439 134.28 30.5407 133.589 31.7033H126.83C127.491 30.4214 128.077 28.9905 128.587 27.4106C129.128 25.8306 129.549 24.1315 129.849 22.313C130.18 20.4648 130.345 18.542 130.345 16.5447V9.16667C130.345 7.7656 130.21 6.55829 129.939 5.54472C129.699 4.53117 129.279 3.7561 128.678 3.21952C128.077 2.65312 127.236 2.36992 126.154 2.36992C125.073 2.36992 124.232 2.66802 123.631 3.26423C123.061 3.83062 122.655 4.6355 122.415 5.67886C122.175 6.69243 122.054 7.89975 122.054 9.30082L122.009 21.4187C122.009 23.7737 121.468 25.771 120.387 27.4106C119.336 29.0203 117.879 30.2575 116.017 31.122C114.185 31.9567 112.127 32.374 109.844 32.374ZM109.664 30.0935C110.925 30.0935 111.902 29.7507 112.592 29.065C113.313 28.3794 113.809 27.4404 114.079 26.248C114.38 25.0555 114.53 23.7141 114.53 22.2236V10.2398C114.53 8.71951 114.38 7.37805 114.079 6.21545C113.809 5.02304 113.313 4.08401 112.592 3.39838C111.902 2.71274 110.925 2.36992 109.664 2.36992C108.342 2.36992 107.336 2.72765 106.645 3.44309C105.954 4.12873 105.473 5.05285 105.203 6.21545C104.963 7.37805 104.842 8.65991 104.842 10.061V22.4024C104.842 23.8035 104.963 25.0854 105.203 26.248C105.473 27.4106 105.954 28.3496 106.645 29.065C107.336 29.7507 108.342 30.0935 109.664 30.0935ZM155.593 32.374C153.761 32.374 152.124 32.1504 150.682 31.7033C149.24 31.2263 148.009 30.6003 146.988 29.8252C145.996 29.0203 145.23 28.126 144.69 27.1423C144.179 26.1585 143.924 25.1599 143.924 24.1463C143.924 23.1626 144.089 22.2385 144.419 21.374C144.75 20.5095 145.275 19.6748 145.996 18.8699H151.764C151.643 19.3767 151.553 19.9431 151.493 20.5691C151.433 21.1951 151.403 21.8807 151.403 22.626C151.403 24.7724 151.778 26.5312 152.53 27.9024C153.31 29.2737 154.587 29.9594 156.359 29.9594C158.101 29.9594 159.408 29.3482 160.279 28.126C161.15 26.874 161.586 24.7873 161.586 21.8659V5.72358C161.586 4.76965 161.345 4.02439 160.865 3.4878C160.415 2.92141 159.708 2.63821 158.747 2.63821C157.876 2.63821 157.2 2.93631 156.72 3.53252C156.239 4.09892 155.999 4.87399 155.999 5.85773V13.0569H149.105V5.58943C149.105 5.11245 148.97 4.72493 148.7 4.42683C148.459 4.12873 148.069 3.97968 147.528 3.97968C147.107 3.97968 146.747 4.09892 146.447 4.3374C146.146 4.54607 145.831 4.79946 145.501 5.09756C145.17 5.39568 144.78 5.66398 144.329 5.90244C143.908 6.11113 143.368 6.21545 142.707 6.21545C141.986 6.21545 141.325 5.99187 140.725 5.54472C140.124 5.09756 139.703 4.42683 139.463 3.53252C139.253 2.6084 139.313 1.4607 139.643 0.0894325H140.725C141.025 0.476967 141.401 0.775069 141.851 0.983743C142.302 1.1626 142.767 1.25203 143.248 1.25203C143.818 1.25203 144.344 1.1626 144.825 0.983743C145.335 0.775069 145.831 0.581304 146.312 0.402439C146.822 0.193768 147.393 0.0894325 148.024 0.0894325C149.195 0.0894325 150.216 0.357725 151.088 0.894312C151.959 1.4309 152.649 2.36992 153.16 3.71138C153.581 2.78726 154.181 2.07182 154.963 1.56504C155.743 1.02846 156.6 0.655826 157.531 0.447154C158.492 0.208673 159.408 0.0894325 160.279 0.0894325C163.103 0.0894325 165.265 0.760166 166.768 2.10162C168.269 3.44309 169.02 5.32114 169.02 7.73577V21.061C169.02 23.2073 168.435 25.145 167.263 26.874C166.121 28.5732 164.544 29.9146 162.532 30.8984C160.55 31.8821 158.236 32.374 155.593 32.374ZM203.605 32.374C202.524 31.4201 201.383 30.6152 200.181 29.9594C198.979 29.3035 197.598 28.7222 196.036 28.2155C194.504 27.7087 192.687 27.2466 190.584 26.8293C188.962 26.4715 187.309 26.0393 185.627 25.5325C183.946 24.9959 182.338 24.3252 180.806 23.5203C179.305 22.7155 177.938 21.7615 176.706 20.6585C175.505 19.5555 174.543 18.2737 173.823 16.813C173.132 15.3523 172.786 13.6829 172.786 11.8049C172.786 9.33064 173.297 7.22902 174.318 5.5C175.34 3.74119 176.691 2.39973 178.373 1.47561C180.085 0.551492 181.948 0.0894325 183.96 0.0894325C185.793 0.0894325 187.355 0.462061 188.646 1.20732C189.938 1.92276 190.899 3.08536 191.53 4.69512C192.251 3.08536 193.242 1.92276 194.504 1.20732C195.796 0.462061 197.177 0.0894325 198.649 0.0894325C200.181 0.0894325 201.563 0.447156 202.794 1.1626C204.056 1.87805 204.972 3.05556 205.543 4.69512C206.083 3.53252 206.804 2.62331 207.705 1.96748C208.607 1.28184 209.598 0.804881 210.679 0.536588C211.761 0.238484 212.812 0.0894325 213.833 0.0894325C215.996 0.0894325 217.858 0.462061 219.42 1.20732C221.012 1.95257 222.229 3.04065 223.07 4.47155C223.941 5.87261 224.376 7.60163 224.376 9.65854C224.376 11.149 224.181 12.6545 223.791 14.1748C223.4 15.6951 222.634 17.3347 221.493 19.0935H214.554C215.125 17.9607 215.545 16.9024 215.816 15.9187C216.086 14.935 216.266 13.9661 216.356 13.0122C216.446 12.0583 216.492 11.0596 216.492 10.0163C216.492 7.63146 216.176 5.79812 215.545 4.51626C214.915 3.20461 213.923 2.54878 212.572 2.54878C211.73 2.54878 211.054 2.80217 210.544 3.30894C210.034 3.81572 209.658 4.50135 209.418 5.36586C209.207 6.20056 209.102 7.13959 209.102 8.18293V15.3821H202.028V8.22764C202.028 7.15447 201.938 6.20056 201.758 5.36586C201.578 4.50135 201.232 3.81572 200.722 3.30894C200.211 2.80217 199.475 2.54878 198.514 2.54878C197.643 2.54878 196.952 2.78726 196.441 3.26423C195.96 3.74119 195.6 4.39702 195.36 5.23171C195.149 6.03659 195.044 6.96072 195.044 8.00407V15.3821H188.016V8.98781C188.016 7.79538 187.895 6.70732 187.655 5.72358C187.445 4.73984 187.084 3.96477 186.574 3.39838C186.063 2.83198 185.327 2.54878 184.366 2.54878C183.135 2.54878 182.203 3.21952 181.572 4.56097C180.972 5.87261 180.671 7.72089 180.671 10.1057C180.671 11.9241 180.866 13.6084 181.257 15.1585C181.648 16.6789 182.338 18.0949 183.33 19.4065C184.321 20.7181 185.673 21.9404 187.385 23.0732C189.097 24.1762 191.274 25.2046 193.918 26.1585C192.536 26.0691 191.124 26.0542 189.683 26.1138C188.241 26.1437 186.814 26.248 185.402 26.4268C183.991 26.5759 182.639 26.7994 181.347 27.0976C180.085 27.3659 178.944 27.7087 177.923 28.126V25.4878C179.004 25.0407 180.266 24.6084 181.708 24.1911C183.18 23.7439 184.771 23.3862 186.484 23.1179C188.226 22.8198 190.043 22.6707 191.935 22.6707C194.248 22.6707 196.366 22.8347 198.288 23.1626C200.241 23.4607 201.998 23.9526 203.56 24.6382C205.152 25.2941 206.594 26.1138 207.886 27.0976C207.916 27.7534 207.736 28.4539 207.345 29.1992C206.984 29.9445 206.474 30.6152 205.813 31.2114C205.152 31.8076 204.416 32.1951 203.605 32.374ZM242.567 31.7033C243.108 30.4512 243.573 29.065 243.964 27.5447C244.384 25.9946 244.715 24.3699 244.955 22.6707C245.195 20.9417 245.316 19.2128 245.316 17.4837V10.5976C245.316 8.98781 245.166 7.5718 244.865 6.3496C244.565 5.09756 244.024 4.12873 243.243 3.44309C242.492 2.72765 241.396 2.36992 239.954 2.36992C238.512 2.36992 237.416 2.72765 236.665 3.44309C235.914 4.15854 235.403 5.12739 235.133 6.3496C234.862 7.54203 234.727 8.89838 234.727 10.4187V17.439C234.727 19.1978 234.832 20.9417 235.043 22.6707C235.283 24.3699 235.614 25.9946 236.034 27.5447C236.454 29.0949 236.92 30.481 237.431 31.7033H230.852C230.252 30.5407 229.666 29.2737 229.095 27.9024C228.524 26.5312 228.059 25.0258 227.698 23.3862C227.368 21.7168 227.203 19.8537 227.203 17.7968V11.2236C227.203 8.86855 227.774 6.85635 228.915 5.187C230.056 3.51761 231.604 2.25068 233.556 1.38618C235.508 0.52168 237.701 0.0894325 240.134 0.0894325C242.657 0.0894325 244.865 0.536588 246.757 1.43089C248.65 2.29539 250.122 3.54743 251.173 5.187C252.254 6.79675 252.795 8.70463 252.795 10.9106V17.7968C252.795 19.8238 252.615 21.6721 252.254 23.3415C251.924 25.0108 251.474 26.5312 250.903 27.9024C250.362 29.2737 249.761 30.5407 249.1 31.7033H242.567ZM10.8587 77C8.81615 77 7.07393 76.5676 5.63211 75.7032C4.22033 74.8089 3.13897 73.6463 2.38802 72.2154C1.6671 70.7546 1.30665 69.1601 1.30665 67.4309C1.30665 65.9106 1.59201 64.5244 2.16273 63.2724C2.73345 61.9903 3.54448 60.9024 4.59581 60.0081C5.64711 59.0838 6.90871 58.3836 8.38058 57.9065C9.85246 57.3999 11.4745 57.1463 13.2467 57.1463C14.9288 57.1463 16.4308 57.3552 17.7524 57.7724C19.1041 58.1601 20.1254 58.592 20.8163 59.0691L19.5097 61.3496C18.7587 60.9024 17.7074 60.3958 16.3557 59.8293C15.034 59.2332 13.5471 58.935 11.895 58.935C10.303 58.935 8.98133 59.2927 7.93002 60.0081C6.8787 60.6936 6.08268 61.6179 5.542 62.7805C5.03136 63.9431 4.77603 65.2398 4.77603 66.6707C4.77603 69.3537 5.31671 71.4405 6.39808 72.9309C7.47945 74.3918 9.17661 75.1219 11.4895 75.1219C12.7211 75.1219 13.8024 74.8089 14.7336 74.1829C15.6948 73.5569 16.4308 72.6626 16.9414 71.5C17.4821 70.3374 17.7524 68.966 17.7524 67.3862V53.2561C17.7524 51.9741 17.5572 50.8267 17.1667 49.813C16.8062 48.7697 16.1904 47.9499 15.3194 47.3537C14.4783 46.7276 13.3368 46.4146 11.895 46.4146C10.7536 46.4146 9.80741 46.5786 9.05644 46.9065C8.33553 47.2344 7.76479 47.6816 7.34427 48.248C6.92376 48.8144 6.62336 49.4702 6.44314 50.2155C6.35302 50.6626 6.21785 51.0798 6.03762 51.4675C5.88745 51.8552 5.67717 52.1682 5.40683 52.4065C5.13648 52.6448 4.746 52.7642 4.23535 52.7642C3.60455 52.7642 3.13897 52.5706 2.83859 52.1829C2.53821 51.7952 2.38802 51.3186 2.38802 50.752C2.38802 50.1558 2.6133 49.5149 3.06387 48.8293C3.51444 48.1437 4.16026 47.5027 5.00132 46.9065C5.84239 46.2805 6.84865 45.7737 8.02013 45.3862C9.22167 44.9986 10.5433 44.8049 11.9851 44.8049C14.0277 44.8049 15.7249 45.1328 17.0766 45.7886C18.4583 46.4146 19.4796 47.3238 20.1404 48.5163C20.8313 49.7087 21.1768 51.1397 21.1768 52.8089V66.6707C21.1768 68.4294 20.7562 70.0991 19.9152 71.6789C19.1041 73.2586 17.9327 74.5406 16.4007 75.5244C14.8688 76.5081 13.0215 77 10.8587 77ZM35.237 77C33.645 77 32.2482 76.7617 31.0467 76.2846C29.8752 75.8074 28.899 75.1814 28.118 74.4065C27.3671 73.6016 26.7963 72.7373 26.4058 71.813C26.0154 70.8887 25.8201 69.9797 25.8201 69.0854C25.8201 67.9527 25.9703 66.969 26.2707 66.1341C26.6011 65.2698 27.0517 64.5244 27.6224 63.8984H29.7851C29.665 64.3755 29.5448 64.8969 29.4246 65.4634C29.3045 66.03 29.2444 66.7302 29.2444 67.565C29.2444 70.0097 29.7701 71.9172 30.8214 73.2886C31.9028 74.6301 33.4948 75.3008 35.5974 75.3008C37.5199 75.3008 39.0819 74.5854 40.2834 73.1545C41.5149 71.6936 42.1307 69.5178 42.1307 66.626V53.6138C42.1307 52.4212 41.9205 51.2886 41.4999 50.2155C41.1094 49.1423 40.4486 48.2927 39.5174 47.6667C38.6163 47.0108 37.4148 46.6829 35.9128 46.6829C34.441 46.6829 33.1644 47.0407 32.083 47.7561C31.0317 48.4417 30.506 49.4553 30.506 50.7968C30.506 51.3633 30.5961 51.8699 30.7763 52.3171C30.9566 52.7642 31.0467 53.2114 31.0467 53.6585C31.0467 54.0163 30.9716 54.344 30.8214 54.6423C30.7013 54.9406 30.491 55.1789 30.1906 55.3577C29.9203 55.5066 29.5448 55.5813 29.0642 55.5813C28.5536 55.5813 28.133 55.4619 27.8026 55.2236C27.4722 54.9553 27.2319 54.6123 27.0817 54.1951C26.9315 53.778 26.8564 53.3308 26.8564 52.8537C26.8564 51.8105 27.0817 50.8116 27.5322 49.8577C27.9828 48.874 28.6287 48.0095 29.4697 47.2642C30.3408 46.519 31.3771 45.9228 32.5786 45.4756C33.7802 45.0285 35.1018 44.8049 36.5436 44.8049C38.406 44.8049 39.998 45.1626 41.3197 45.8781C42.6714 46.5637 43.7077 47.5176 44.4286 48.7398C45.1495 49.962 45.51 51.3781 45.51 52.9878V65.8659C45.51 67.8633 45.1195 69.7114 44.3385 71.4106C43.5575 73.1098 42.401 74.466 40.8691 75.4797C39.3672 76.4934 37.4898 77 35.237 77ZM76.1627 77C75.0214 75.8968 73.895 75.0025 72.7834 74.3171C71.6723 73.6316 70.4256 73.0351 69.0437 72.5285C67.6623 72.0218 65.965 71.5594 63.9522 71.1423C62.09 70.7546 60.363 70.1438 58.7707 69.3089C57.1788 68.4741 55.7821 67.4456 54.5804 66.2236C53.3792 65.0015 52.433 63.6001 51.7418 62.0203C51.0811 60.4106 50.7507 58.6367 50.7507 56.6992C50.7507 54.2251 51.1562 52.1082 51.9671 50.3496C52.8083 48.561 53.9496 47.1897 55.3914 46.2358C56.8634 45.2819 58.5157 44.8049 60.3477 44.8049C61.8796 44.8049 63.2764 45.1924 64.538 45.9675C65.8298 46.7425 66.821 48.1138 67.5117 50.0813C68.1727 48.3225 69.2541 47.0108 70.7558 46.1463C72.2878 45.252 73.9702 44.8049 75.8022 44.8049C77.5748 44.8049 79.1666 45.2222 80.5783 46.0569C81.9904 46.8916 83.1014 48.0542 83.9125 49.5447C84.7235 51.0351 85.129 52.7942 85.129 54.8211C85.129 56.6692 84.7086 58.3836 83.8674 59.9634C83.0564 61.5137 81.9151 62.7658 80.4431 63.7195C79.0013 64.6733 77.3193 65.1504 75.3967 65.1504C73.3845 65.1504 71.6421 64.748 70.1701 63.9431C68.7283 63.1382 67.6172 61.9756 66.8359 60.4553C66.0551 58.905 65.6644 57.0569 65.6644 54.9106C65.6644 53.2708 65.4693 51.8399 65.0787 50.6179C64.7182 49.3659 64.1325 48.397 63.3214 47.7114C62.5104 46.9959 61.4444 46.6382 60.1224 46.6382C58.2904 46.6382 56.8783 47.4878 55.887 49.187C54.926 50.8562 54.4452 53.1814 54.4452 56.1626C54.4452 57.7724 54.6254 59.278 54.9859 60.6789C55.3464 62.0503 55.9321 63.3471 56.7431 64.5691C57.5844 65.7912 58.6959 66.939 60.0773 68.0122C61.4895 69.0854 63.2467 70.0991 65.349 71.0528C62.7961 70.874 60.573 70.9634 58.6806 71.3211C56.8184 71.6489 55.0914 72.1408 53.499 72.7968V70.9187C55.1815 70.3521 56.8634 69.935 58.5454 69.6667C60.2576 69.3984 61.94 69.2642 63.5918 69.2642C66.6859 69.2642 69.4195 69.7261 71.7921 70.6504C74.1955 71.5447 76.3731 72.8415 78.3254 74.5406C78.2655 74.9284 78.1303 75.2861 77.9199 75.6138C77.71 75.9416 77.4545 76.2099 77.1539 76.4187C76.8539 76.657 76.5231 76.8511 76.1627 77ZM75.3967 63.3618C77.2891 63.3618 78.7913 62.6164 79.9024 61.126C81.014 59.6357 81.5695 57.534 81.5695 54.8211C81.5695 52.2871 81.014 50.29 79.9024 48.8293C78.7913 47.3685 77.2742 46.6382 75.3516 46.6382C74.0301 46.6382 72.9037 46.981 71.9724 47.6667C71.0712 48.3523 70.3805 49.3211 69.8998 50.5732C69.4492 51.7952 69.2239 53.2261 69.2239 54.8659C69.2239 57.6082 69.7047 59.7099 70.6657 61.1707C71.6273 62.6316 73.2043 63.3618 75.3967 63.3618ZM102.895 76.4187C103.526 75.0473 104.067 73.6164 104.517 72.126C104.998 70.6057 105.359 68.9959 105.599 67.2967C105.869 65.5676 106.004 63.7195 106.004 61.752V55C106.004 53.3308 105.764 51.8847 105.283 50.6626C104.803 49.4404 104.067 48.5014 103.075 47.8455C102.084 47.1599 100.792 46.8171 99.2006 46.8171C97.6087 46.8171 96.3169 47.1748 95.3257 47.8902C94.3647 48.6057 93.6586 49.5894 93.208 50.8415C92.7575 52.0935 92.5322 53.5244 92.5322 55.1341V61.7073C92.5322 63.6748 92.6525 65.5229 92.8926 67.252C93.163 68.9812 93.5234 70.6057 93.974 72.126C94.4548 73.6164 94.9955 75.0473 95.596 76.4187H92.5322C91.9613 75.2261 91.4057 73.9446 90.8651 72.5732C90.3546 71.1723 89.9337 69.6072 89.6035 67.878C89.2732 66.1489 89.1078 64.1667 89.1078 61.9309V55.2236C89.1078 53.1966 89.5282 51.408 90.3694 49.8577C91.2404 48.2778 92.4421 47.0407 93.974 46.1463C95.5361 45.252 97.3384 44.8049 99.3808 44.8049C101.513 44.8049 103.331 45.252 104.833 46.1463C106.334 47.0108 107.476 48.2181 108.257 49.7683C109.068 51.2886 109.474 53.0025 109.474 54.9106V61.9309C109.474 64.1667 109.293 66.1489 108.933 67.878C108.603 69.6072 108.167 71.1723 107.626 72.5732C107.116 73.9446 106.575 75.2261 106.004 76.4187H102.895ZM128.862 77C126.609 77 124.581 76.6123 122.779 75.8374C121.007 75.0625 119.505 73.9741 118.274 72.5732C117.042 71.1723 116.096 69.5178 115.435 67.6098C114.804 65.7017 114.489 63.6153 114.489 61.3496C114.489 58.0407 115.074 55.1042 116.246 52.5407C117.417 49.9472 119.099 47.5772 121.292 45.4309H123.5C122.449 46.7724 121.503 48.1734 120.662 49.6342C119.851 51.095 119.22 52.7048 118.769 54.4634C118.319 56.1926 118.093 58.1601 118.093 60.3659C118.093 63.6448 118.559 66.3877 119.49 68.5935C120.421 70.7698 121.698 72.4243 123.32 73.5569C124.972 74.6601 126.849 75.2114 128.952 75.2114C130.694 75.2114 132.241 74.8984 133.593 74.2724C134.975 73.6463 136.056 72.752 136.837 71.5894C137.618 70.3969 138.008 68.9959 138.008 67.3862C138.008 66.1341 137.708 65.061 137.107 64.1667C136.507 63.2424 135.62 62.4975 134.449 61.9309C133.277 61.3643 131.791 60.9619 129.988 60.7236L129.628 59.6057C131.37 59.0691 132.797 58.5473 133.908 58.0407C135.02 57.5041 135.831 56.9527 136.341 56.3862C136.882 55.7901 137.152 55.1342 137.152 54.4187C137.152 53.6733 136.957 53.0625 136.567 52.5854C136.206 52.0788 135.756 51.6611 135.215 51.3333C134.674 50.9756 134.119 50.6328 133.548 50.3049C133.007 49.9472 132.542 49.5298 132.151 49.0528C131.791 48.5759 131.61 47.9498 131.61 47.1748C131.61 46.7276 131.7 46.2954 131.881 45.8781C132.091 45.4607 132.376 45.0732 132.737 44.7155H133.728C133.698 44.8049 133.668 44.9241 133.638 45.0732C133.638 45.1924 133.638 45.3266 133.638 45.4756C133.638 45.9228 133.803 46.3401 134.134 46.7276C134.494 47.1152 134.93 47.4878 135.44 47.8455C135.981 48.1734 136.552 48.5312 137.152 48.9187C137.783 49.2764 138.354 49.6938 138.865 50.1707C139.405 50.6179 139.841 51.1245 140.171 51.6911C140.532 52.2576 140.712 52.9284 140.712 53.7033C140.712 55.0147 140.141 56.1032 139 56.9675C137.888 57.8023 136.251 58.5473 134.088 59.2033C135.2 59.4121 136.326 59.7993 137.468 60.3659C138.609 60.9324 139.571 61.7373 140.351 62.7805C141.162 63.7942 141.568 65.1504 141.568 66.8496C141.568 68.3699 141.222 69.7561 140.532 71.0081C139.841 72.2602 138.895 73.3333 137.693 74.2276C136.522 75.1219 135.17 75.8074 133.638 76.2846C132.136 76.7617 130.544 77 128.862 77ZM160.253 76.4187C160.884 75.0473 161.425 73.6164 161.875 72.126C162.356 70.6057 162.716 68.9959 162.957 67.2967C163.227 65.5676 163.362 63.7195 163.362 61.752V55C163.362 53.3308 163.122 51.8847 162.641 50.6626C162.161 49.4404 161.425 48.5014 160.433 47.8455C159.442 47.1599 158.15 46.8171 156.559 46.8171C154.966 46.8171 153.675 47.1748 152.684 47.8902C151.722 48.6057 151.017 49.5894 150.566 50.8415C150.115 52.0935 149.89 53.5244 149.89 55.1341V61.7073C149.89 63.6748 150.01 65.5229 150.251 67.252C150.521 68.9812 150.881 70.6057 151.332 72.126C151.812 73.6164 152.353 75.0473 152.954 76.4187H149.89C149.319 75.2261 148.764 73.9446 148.223 72.5732C147.712 71.1723 147.292 69.6072 146.961 67.878C146.631 66.1489 146.466 64.1667 146.466 61.9309V55.2236C146.466 53.1966 146.886 51.408 147.727 49.8577C148.598 48.2778 149.8 47.0407 151.332 46.1463C152.894 45.252 154.696 44.8049 156.739 44.8049C158.871 44.8049 160.688 45.252 162.191 46.1463C163.692 47.0108 164.834 48.2181 165.615 49.7683C166.426 51.2886 166.832 53.0025 166.832 54.9106V61.9309C166.832 64.1667 166.651 66.1489 166.291 67.878C165.96 69.6072 165.525 71.1723 164.984 72.5732C164.473 73.9446 163.933 75.2261 163.362 76.4187H160.253ZM182.345 77C180.453 77 178.815 76.5976 177.434 75.7927C176.052 74.9578 174.971 73.8252 174.19 72.3943C173.439 70.9634 173.063 69.3537 173.063 67.565V52.0041C173.063 50.5136 173.348 49.2317 173.919 48.1585C174.49 47.0555 175.316 46.2059 176.397 45.6098C177.509 45.0136 178.86 44.7155 180.453 44.7155C181.324 44.7155 182.165 44.8198 182.976 45.0285C183.787 45.2371 184.582 45.4607 185.364 45.6992C186.145 45.9079 186.925 46.0122 187.707 46.0122C188.518 46.0122 189.208 45.8929 189.779 45.6545C190.35 45.416 190.74 45.1477 190.951 44.8496H192.077C192.077 46.1911 191.627 47.2493 190.726 48.0244C189.854 48.7697 188.743 49.1423 187.391 49.1423C186.7 49.1423 186.04 49.0677 185.409 48.9187C184.808 48.7398 184.222 48.5163 183.652 48.248C183.081 47.9797 182.51 47.7263 181.939 47.4878C181.399 47.2195 180.843 47.0108 180.272 46.8618C179.701 46.6829 179.086 46.5935 178.425 46.5935C178.065 46.5935 177.704 46.6382 177.344 46.7276C177.013 46.7873 176.728 46.8618 176.488 46.9512V66.2683C176.488 68.0569 176.698 69.622 177.118 70.9634C177.569 72.3049 178.26 73.3481 179.191 74.0935C180.152 74.8089 181.414 75.1667 182.976 75.1667C184.387 75.1667 185.589 74.8237 186.58 74.1382C187.572 73.4527 188.322 72.4985 188.833 71.2764C189.374 70.0244 189.644 68.6235 189.644 67.0732C189.644 65.2546 189.344 63.7942 188.743 62.6911C188.172 61.5879 187.376 60.7983 186.355 60.3211C185.334 59.8145 184.147 59.561 182.796 59.561C181.774 59.561 180.723 59.7546 179.642 60.1423C178.56 60.53 177.359 61.126 176.037 61.9309L175.586 61.1707C177.088 59.6204 178.545 58.5473 179.957 57.9512C181.399 57.3552 182.946 57.0569 184.598 57.0569C186.159 57.0569 187.586 57.4146 188.878 58.1301C190.17 58.8156 191.191 59.8293 191.942 61.1707C192.723 62.5122 193.114 64.1667 193.114 66.1341C193.114 68.0122 192.693 69.7861 191.852 71.4553C191.011 73.095 189.794 74.4365 188.202 75.4797C186.61 76.4934 184.658 77 182.345 77ZM211.495 76.4187C212.126 75.0473 212.666 73.6164 213.117 72.126C213.598 70.6057 213.958 68.9959 214.198 67.2967C214.469 65.5676 214.604 63.7195 214.604 61.752V55C214.604 53.3308 214.364 51.8847 213.883 50.6626C213.402 49.4404 212.666 48.5014 211.675 47.8455C210.684 47.1599 209.392 46.8171 207.8 46.8171C206.208 46.8171 204.916 47.1748 203.925 47.8902C202.964 48.6057 202.258 49.5894 201.808 50.8415C201.357 52.0935 201.132 53.5244 201.132 55.1341V61.7073C201.132 63.6748 201.252 65.5229 201.492 67.252C201.762 68.9812 202.123 70.6057 202.574 72.126C203.054 73.6164 203.595 75.0473 204.196 76.4187H201.132C200.561 75.2261 200.005 73.9446 199.465 72.5732C198.954 71.1723 198.533 69.6072 198.203 67.878C197.873 66.1489 197.707 64.1667 197.707 61.9309V55.2236C197.707 53.1966 198.128 51.408 198.969 49.8577C199.84 48.2778 201.042 47.0407 202.574 46.1463C204.136 45.252 205.938 44.8049 207.98 44.8049C210.113 44.8049 211.931 45.252 213.432 46.1463C214.934 47.0108 216.076 48.2181 216.857 49.7683C217.668 51.2886 218.073 53.0025 218.073 54.9106V61.9309C218.073 64.1667 217.893 66.1489 217.532 67.878C217.202 69.6072 216.766 71.1723 216.226 72.5732C215.715 73.9446 215.175 75.2261 214.604 76.4187H211.495ZM235.076 77C233.064 77 231.352 76.6123 229.94 75.8374C228.528 75.0325 227.447 73.9741 226.696 72.6626C225.975 71.3511 225.615 69.9202 225.615 68.3699V48.3374C225.615 47.7412 225.479 47.3089 225.209 47.0407C224.969 46.7425 224.503 46.5935 223.812 46.5935C223.422 46.5935 223.061 46.6084 222.731 46.6382C222.401 46.668 222.04 46.7276 221.65 46.8171V45.6992C222.16 45.5203 222.686 45.3564 223.227 45.2073C223.767 45.0583 224.308 44.939 224.849 44.8496C225.389 44.7602 225.885 44.7155 226.335 44.7155C227.087 44.7155 227.642 44.8347 228.003 45.0732C228.393 45.2819 228.648 45.5799 228.768 45.9675C228.919 46.3252 228.994 46.7276 228.994 47.1748V67.1626C228.994 69.7261 229.52 71.7236 230.571 73.1545C231.652 74.5554 233.259 75.2561 235.392 75.2561C237.224 75.2561 238.696 74.779 239.807 73.8252C240.919 72.8714 241.475 71.5747 241.475 69.935C241.475 68.7129 241.264 67.7139 240.844 66.939C240.453 66.1641 240.003 65.4782 239.492 64.8821C238.982 64.2561 238.516 63.6153 238.095 62.9594C237.705 62.2739 237.51 61.409 237.51 60.3659C237.51 59.7993 237.585 59.3074 237.735 58.8902C237.915 58.4731 238.155 58.0706 238.456 57.6829H239.853C239.793 57.8618 239.748 58.0554 239.717 58.2642C239.717 58.4731 239.717 58.6519 239.717 58.8008C239.717 59.5462 239.898 60.2017 240.258 60.7683C240.618 61.3349 241.069 61.9009 241.61 62.4675C242.181 63.0041 242.736 63.5854 243.277 64.2114C243.818 64.8374 244.268 65.5381 244.629 66.313C245.019 67.0879 245.214 67.9975 245.214 69.0406C245.214 70.4416 244.794 71.7536 243.953 72.9756C243.142 74.1977 241.97 75.1814 240.438 75.9268C238.937 76.6423 237.149 77 235.076 77ZM258.822 77C256.839 77 255.097 76.5828 253.595 75.748C252.093 74.9131 250.922 73.7505 250.081 72.2602C249.27 70.7398 248.864 68.9812 248.864 66.9837V54.9106C248.864 53.0025 249.27 51.2886 250.081 49.7683C250.892 48.248 252.033 47.0407 253.505 46.1463C255.007 45.252 256.734 44.8049 258.687 44.8049C260.579 44.8049 262.261 45.2073 263.733 46.0122C265.205 46.8171 266.301 48.2778 267.022 50.3943C267.623 48.2778 268.659 46.8171 270.131 46.0122C271.603 45.2073 273.315 44.8049 275.268 44.8049C276.95 44.8049 278.422 45.1775 279.683 45.9228C280.975 46.668 281.981 47.771 282.702 49.2317C283.423 50.6924 283.784 52.4959 283.784 54.6423V61.0366C283.784 63.5706 283.603 65.7617 283.243 67.6098C282.882 69.4578 282.402 71.0976 281.801 72.5285C281.23 73.9294 280.599 75.2261 279.909 76.4187H276.8C277.55 74.8984 278.181 73.3481 278.692 71.7683C279.233 70.1885 279.638 68.5041 279.909 66.7154C280.179 64.8969 280.314 62.9294 280.314 60.813V54.5528C280.314 52.7343 280.089 51.2586 279.638 50.126C279.217 48.9932 278.572 48.1585 277.701 47.622C276.829 47.0854 275.763 46.8171 274.502 46.8171C273.15 46.8171 272.053 47.145 271.213 47.8008C270.402 48.4567 269.801 49.351 269.41 50.4837C269.02 51.6164 268.825 52.8984 268.825 54.3293V66.7154C268.825 68.7424 268.419 70.531 267.608 72.0813C266.797 73.6316 265.64 74.8389 264.139 75.7032C262.667 76.5676 260.895 77 258.822 77ZM258.732 75.2114C260.264 75.2114 261.51 74.8836 262.472 74.2276C263.463 73.5422 264.184 72.5879 264.634 71.3659C265.115 70.1138 265.355 68.6382 265.355 66.939V54.687C265.355 53.1072 265.1 51.7358 264.589 50.5732C264.078 49.3807 263.328 48.4567 262.336 47.8008C261.375 47.145 260.189 46.8171 258.777 46.8171C257.275 46.8171 256.043 47.1599 255.082 47.8455C254.151 48.5312 253.46 49.4702 253.01 50.6626C252.559 51.8552 252.334 53.2414 252.334 54.8211V67.0732C252.334 68.6529 252.544 70.0544 252.965 71.2764C253.415 72.4985 254.106 73.4675 255.037 74.1829C255.998 74.8684 257.23 75.2114 258.732 75.2114ZM297.502 77C295.94 77 294.574 76.7764 293.402 76.3293C292.231 75.8821 291.254 75.2861 290.473 74.5406C289.692 73.7952 289.106 72.9756 288.716 72.0813C288.326 71.187 288.13 70.2927 288.13 69.3984C288.13 68.5635 288.266 67.7739 288.536 67.0285C288.806 66.283 289.227 65.5976 289.798 64.9715H292.005C291.885 65.4487 291.765 65.9853 291.645 66.5813C291.525 67.1773 291.465 67.8333 291.465 68.5488C291.465 69.8603 291.705 71.0381 292.186 72.0813C292.696 73.095 293.447 73.8847 294.438 74.4512C295.43 75.0178 296.661 75.3008 298.133 75.3008C299.515 75.3008 300.716 74.9878 301.738 74.3618C302.759 73.7358 303.54 72.8862 304.081 71.813C304.651 70.7398 304.937 69.5178 304.937 68.1463C304.937 66.1194 304.321 64.4944 303.089 63.2724C301.858 62.0203 299.98 61.2302 297.457 60.9024L297.052 59.7846C298.523 59.0391 299.77 58.2642 300.792 57.4594C301.812 56.6245 302.594 55.7454 303.134 54.8211C303.675 53.8969 303.945 52.9431 303.945 51.9594C303.945 51.0056 303.735 50.126 303.315 49.3211C302.924 48.5163 302.293 47.8754 301.422 47.3984C300.581 46.9214 299.469 46.6829 298.088 46.6829C297.217 46.6829 296.391 46.832 295.61 47.1301C294.829 47.3984 294.198 47.8157 293.718 48.3821C293.237 48.9485 292.997 49.6789 292.997 50.5732C292.997 51.1098 293.071 51.5869 293.222 52.0041C293.402 52.3918 293.492 52.8389 293.492 53.3455C293.492 53.7332 293.402 54.0757 293.222 54.374C293.071 54.6423 292.846 54.8511 292.546 55C292.276 55.1489 291.93 55.2236 291.51 55.2236C290.759 55.2236 290.188 54.97 289.798 54.4634C289.437 53.9268 289.257 53.2861 289.257 52.5407C289.257 51.5569 289.482 50.603 289.933 49.6789C290.413 48.7547 291.074 47.935 291.915 47.2195C292.786 46.4742 293.823 45.8929 295.024 45.4756C296.225 45.0285 297.562 44.8049 299.034 44.8049C300.776 44.8049 302.263 45.0881 303.495 45.6545C304.757 46.2209 305.718 47.0108 306.379 48.0244C307.039 49.038 307.37 50.2155 307.37 51.5569C307.37 52.5107 307.159 53.435 306.739 54.3293C306.348 55.1936 305.642 56.0432 304.621 56.8781C303.6 57.6829 302.158 58.5025 300.296 59.3374C301.587 59.4568 302.849 59.8145 304.081 60.4106C305.342 61.0066 306.379 61.8714 307.19 63.0041C308.001 64.1367 308.406 65.5828 308.406 67.3415C308.406 68.4741 308.151 69.6072 307.64 70.7398C307.159 71.8725 306.438 72.9162 305.477 73.8699C304.546 74.8237 303.405 75.5838 302.053 76.1504C300.701 76.717 299.184 77 297.502 77ZM327.178 76.4187C327.809 75.0473 328.35 73.6164 328.801 72.126C329.281 70.6057 329.642 68.9959 329.882 67.2967C330.152 65.5676 330.287 63.7195 330.287 61.752V55C330.287 53.3308 330.047 51.8847 329.567 50.6626C329.086 49.4404 328.35 48.5014 327.359 47.8455C326.367 47.1599 325.076 46.8171 323.484 46.8171C321.892 46.8171 320.6 47.1748 319.609 47.8902C318.648 48.6057 317.942 49.5894 317.491 50.8415C317.041 52.0935 316.815 53.5244 316.815 55.1341V61.7073C316.815 63.6748 316.936 65.5229 317.176 67.252C317.446 68.9812 317.807 70.6057 318.257 72.126C318.738 73.6164 319.279 75.0473 319.879 76.4187H316.815C316.245 75.2261 315.689 73.9446 315.148 72.5732C314.638 71.1723 314.217 69.6072 313.887 67.878C313.556 66.1489 313.391 64.1667 313.391 61.9309V55.2236C313.391 53.1966 313.811 51.408 314.653 49.8577C315.524 48.2778 316.725 47.0407 318.257 46.1463C319.819 45.252 321.622 44.8049 323.664 44.8049C325.797 44.8049 327.614 45.252 329.116 46.1463C330.618 47.0108 331.759 48.2181 332.54 49.7683C333.351 51.2886 333.757 53.0025 333.757 54.9106V61.9309C333.757 64.1667 333.577 66.1489 333.216 67.878C332.886 69.6072 332.45 71.1723 331.909 72.5732C331.399 73.9446 330.858 75.2261 330.287 76.4187H327.178ZM350.76 77C348.747 77 347.035 76.6123 345.624 75.8374C344.212 75.0325 343.131 73.9741 342.38 72.6626C341.659 71.3511 341.298 69.9202 341.298 68.3699V48.3374C341.298 47.7412 341.163 47.3089 340.893 47.0407C340.653 46.7425 340.187 46.5935 339.496 46.5935C339.105 46.5935 338.745 46.6084 338.415 46.6382C338.084 46.668 337.724 46.7276 337.333 46.8171V45.6992C337.844 45.5203 338.37 45.3564 338.91 45.2073C339.451 45.0583 339.992 44.939 340.532 44.8496C341.073 44.7602 341.569 44.7155 342.019 44.7155C342.77 44.7155 343.326 44.8347 343.686 45.0732C344.077 45.2819 344.332 45.5799 344.452 45.9675C344.602 46.3252 344.677 46.7276 344.677 47.1748V67.1626C344.677 69.7261 345.203 71.7236 346.254 73.1545C347.336 74.5554 348.943 75.2561 351.076 75.2561C352.908 75.2561 354.38 74.779 355.491 73.8252C356.603 72.8714 357.158 71.5747 357.158 69.935C357.158 68.7129 356.948 67.7139 356.527 66.939C356.137 66.1641 355.686 65.4782 355.176 64.8821C354.665 64.2561 354.199 63.6153 353.779 62.9594C353.388 62.2739 353.193 61.409 353.193 60.3659C353.193 59.7993 353.268 59.3074 353.419 58.8902C353.599 58.4731 353.839 58.0706 354.139 57.6829H355.536C355.476 57.8618 355.431 58.0554 355.401 58.2642C355.401 58.4731 355.401 58.6519 355.401 58.8008C355.401 59.5462 355.581 60.2017 355.942 60.7683C356.302 61.3349 356.753 61.9009 357.293 62.4675C357.864 63.0041 358.42 63.5854 358.961 64.2114C359.501 64.8374 359.952 65.5381 360.312 66.313C360.703 67.0879 360.898 67.9975 360.898 69.0406C360.898 70.4416 360.478 71.7536 359.636 72.9756C358.825 74.1977 357.654 75.1814 356.122 75.9268C354.62 76.6423 352.833 77 350.76 77ZM365.539 45.4309H369.099V50.0813L368.333 65.8659H366.305L365.539 50.0813V45.4309ZM370 74.3618C370 74.9578 369.865 75.4497 369.594 75.8374C369.324 76.1951 368.979 76.4487 368.558 76.5976C368.137 76.7464 367.717 76.8211 367.297 76.8211C366.846 76.8211 366.395 76.7464 365.945 76.5976C365.524 76.4487 365.179 76.1951 364.909 75.8374C364.638 75.4497 364.503 74.9578 364.503 74.3618C364.503 73.7058 364.638 73.1992 364.909 72.8415C365.179 72.4837 365.524 72.2302 365.945 72.0813C366.395 71.9324 366.831 71.8577 367.252 71.8577C367.672 71.8577 368.092 71.9324 368.513 72.0813C368.933 72.2302 369.279 72.4837 369.549 72.8415C369.849 73.1992 370 73.7058 370 74.3618Z" fill="#F0EDF6"/>
</svg>
