<svg width="46" height="49" viewBox="0 0 46 49" fill="none" xmlns="http://www.w3.org/2000/svg">
<path d="M37.2764 0.887306C37.838 0.22238 39.8948 1.03524 41.8706 2.7033C43.8463 4.37135 44.9928 6.26281 44.4312 6.92773C43.8696 7.59299 41.8128 6.77979 39.8371 5.11173C37.8613 3.444 36.7149 1.55256 37.2764 0.887306Z" fill="#9268F8"/>
<path d="M43.8055 7.82197C43.443 7.82197 42.9897 7.73472 42.4225 7.51067C41.4896 7.14196 40.4205 6.46981 39.4115 5.61791C37.4449 3.95772 35.7802 1.6359 36.7718 0.460883V0.460553C37.7641 -0.714139 40.332 0.537966 42.2985 2.19782C44.2651 3.85833 45.9299 6.18016 44.9382 7.35485C44.7335 7.5976 44.3871 7.82197 43.8055 7.82197ZM37.794 1.32361C37.7651 1.67657 38.3989 3.03071 40.265 4.60658C42.1312 6.18246 43.572 6.58102 43.9161 6.49212C43.9453 6.13916 43.3112 4.78503 41.445 3.20915C39.5788 1.63393 38.1364 1.23602 37.794 1.32361Z" fill="#1E1740"/>
<path d="M31.7773 11.4097L34.9854 14.1182L42.1623 5.61733L38.9542 2.90887L31.7773 11.4097Z" fill="#9268F8"/>
<path d="M34.9822 14.7793C34.8313 14.7793 34.6797 14.7281 34.5557 14.6231L31.3472 11.9146C31.2131 11.8014 31.1294 11.6394 31.1147 11.4645C31.0999 11.2897 31.155 11.1161 31.2682 10.982L38.4452 2.48095C38.6811 2.2018 39.0984 2.16637 39.3778 2.40223L42.586 5.11081C42.7202 5.22398 42.8038 5.38603 42.8186 5.56087C42.8334 5.73572 42.7783 5.90924 42.6651 6.0434L35.4883 14.5441C35.3575 14.6993 35.1705 14.7793 34.9822 14.7793ZM32.7066 11.33L34.9035 13.1847L41.2267 5.69504L39.0298 3.84032L32.7066 11.33Z" fill="#1E1740"/>
<path d="M37.3557 8.05286C39.3315 9.72092 39.5811 12.6749 37.913 14.6506L24.2586 30.824C22.5905 32.7998 19.6366 33.0491 17.6608 31.381C15.6851 29.713 15.4355 26.759 17.1035 24.7833L30.7579 8.60987C32.426 6.63411 35.38 6.38481 37.3557 8.05286Z" fill="#9268F8"/>
<path d="M20.6782 32.8141C19.5357 32.8141 18.3879 32.4271 17.4484 31.6339C16.4252 30.7702 15.7997 29.5597 15.6872 28.2256C15.5743 26.8915 15.9883 25.5931 16.852 24.57L30.5061 8.3969C31.3702 7.37376 32.5806 6.74819 33.9147 6.63568C35.2485 6.52185 36.5472 6.93648 37.5704 7.80052C38.5935 8.66424 39.2191 9.87468 39.3316 11.2088C39.4444 12.5429 39.0308 13.8413 38.1667 14.8644L24.5126 31.0378C23.5223 32.2099 22.1045 32.8141 20.6782 32.8141ZM34.3435 7.27895C34.2195 7.27895 34.0952 7.2842 33.9702 7.2947C32.8119 7.39245 31.7615 7.93535 31.0116 8.82334L17.3575 24.9968C16.6076 25.8847 16.2488 27.0115 16.3465 28.1695C16.4443 29.3275 16.9872 30.3782 17.8755 31.128C19.7092 32.6754 22.4594 32.4438 24.0068 30.6101L37.6612 14.437C38.4111 13.549 38.77 12.4222 38.6722 11.2639C38.5745 10.106 38.0316 9.05527 37.1436 8.30538C36.3507 7.63717 35.3686 7.27895 34.3435 7.27895Z" fill="#1E1740"/>
<path d="M32.6492 20.8842L25.4945 14.8438L16.5811 25.541C16.5811 25.541 15.3123 29.2218 16.9193 30.5907C18.5264 31.9596 20.8921 32.4802 20.8921 32.4802L23.2596 32.0062L32.6492 20.8842Z" fill="#9268F8"/>
<path d="M20.677 33.1441C19.459 33.1441 18.2354 32.7311 17.234 31.8858C16.1432 30.9653 15.4763 29.6745 15.3563 28.2521C15.2362 26.8301 15.6771 25.4461 16.5979 24.3557L30.2523 8.18234C32.1533 5.93071 35.5317 5.64564 37.7827 7.54627C38.8734 8.46706 39.5403 9.75755 39.6604 11.1796C39.7808 12.6019 39.3395 13.9859 38.4188 15.0763L24.7643 31.2497C23.7087 32.5002 22.1974 33.1438 20.677 33.1441ZM34.3423 7.60893C34.2278 7.60893 34.1126 7.61385 33.9972 7.62369C32.9271 7.7139 31.9565 8.21579 31.2637 9.0362L17.6092 25.2096C16.9164 26.03 16.5848 27.0712 16.675 28.1413C16.7652 29.2113 17.2671 30.182 18.0875 30.8748C19.7811 32.3047 22.3228 32.0902 23.7527 30.3965L37.4071 14.2231C38.0999 13.4023 38.4315 12.3615 38.3413 11.2914C38.2511 10.2217 37.7492 9.25073 36.9288 8.55792C36.1966 7.93991 35.289 7.60893 34.3423 7.60893Z" fill="#1E1740"/>
<path d="M18.088 30.8748C17.8085 30.6392 17.3913 30.6743 17.1554 30.9535L10.1552 39.2452C9.9193 39.5244 9.95473 39.942 10.2339 40.1778C10.3582 40.2825 10.5098 40.334 10.6603 40.334C10.8486 40.334 11.0356 40.2542 11.1665 40.0991L18.1667 31.8074C18.4023 31.5282 18.3672 31.1106 18.088 30.8748Z" fill="#1E1740"/>
<path d="M24.6355 30.8718C24.5226 30.8718 24.4088 30.8335 24.3156 30.7547L21.6946 28.5418C21.4854 28.3647 21.4588 28.0517 21.6356 27.8421C21.8121 27.6328 22.125 27.6062 22.335 27.7831L24.956 29.9956C25.1652 30.1728 25.1918 30.4857 25.015 30.6953C24.9169 30.8121 24.7769 30.8718 24.6355 30.8718Z" fill="#1E1740"/>
<path d="M26.4299 28.7476C26.317 28.7476 26.2032 28.7092 26.11 28.6305L24.4302 27.2127C24.2205 27.0359 24.1943 26.7229 24.3708 26.513C24.5473 26.3037 24.8605 26.2771 25.0702 26.454L26.75 27.8717C26.9596 28.0485 26.9862 28.3615 26.8094 28.5714C26.7113 28.6879 26.5712 28.7476 26.4299 28.7476Z" fill="#1E1740"/>
<path d="M28.3425 26.482C28.2297 26.482 28.1158 26.4436 28.0227 26.3649L25.4017 24.1523C25.1924 23.9751 25.1658 23.6622 25.3426 23.4526C25.5191 23.2433 25.8321 23.2164 26.042 23.3935L28.663 25.6065C28.8723 25.7836 28.8988 26.0965 28.722 26.3062C28.624 26.4219 28.4839 26.482 28.3425 26.482Z" fill="#1E1740"/>
<path d="M30.1377 24.3564C30.0249 24.3564 29.911 24.318 29.8179 24.2393L28.138 22.8212C27.9287 22.6441 27.9021 22.3311 28.079 22.1215C28.2554 21.9122 28.5684 21.8853 28.7783 22.0625L30.4582 23.4806C30.6675 23.6577 30.694 23.9707 30.5172 24.1803C30.4192 24.2967 30.2791 24.3564 30.1377 24.3564Z" fill="#1E1740"/>
<path d="M31.7527 22.4432C31.6395 22.4432 31.526 22.4048 31.4328 22.326L28.8118 20.1128C28.6025 19.936 28.576 19.623 28.7528 19.4134C28.9296 19.2045 29.2425 19.1772 29.4522 19.3544L32.0731 21.5673C32.2824 21.7444 32.309 22.0574 32.1322 22.267C32.0341 22.3835 31.8937 22.4432 31.7527 22.4432Z" fill="#1E1740"/>
<path d="M33.5469 20.3191C33.434 20.3191 33.3202 20.2808 33.227 20.202L31.5472 18.7839C31.3379 18.6071 31.3113 18.2942 31.4881 18.0846C31.6646 17.8753 31.9776 17.848 32.1875 18.0255L33.8674 19.4436C34.0767 19.6204 34.1032 19.9334 33.9264 20.143C33.8283 20.2594 33.6879 20.3191 33.5469 20.3191Z" fill="#1E1740"/>
<path d="M35.4607 18.0519C35.3478 18.0519 35.234 18.0135 35.1408 17.9348L32.5198 15.7221C32.3105 15.5453 32.284 15.2324 32.4608 15.0228C32.6373 14.8138 32.9502 14.7866 33.1602 14.9637L35.7812 17.1767C35.9904 17.3535 36.017 17.6664 35.8402 17.876C35.7421 17.9918 35.6021 18.0519 35.4607 18.0519Z" fill="#1E1740"/>
<path d="M37.2549 15.9263C37.1417 15.9263 37.0282 15.8879 36.9351 15.8092L35.2552 14.3911C35.0459 14.2143 35.0193 13.9013 35.1961 13.6917C35.3726 13.4824 35.6859 13.4559 35.8955 13.6327L37.5754 15.0508C37.7847 15.2276 37.8112 15.5405 37.6344 15.7501C37.5363 15.8662 37.3959 15.9263 37.2549 15.9263Z" fill="#1E1740"/>
<path d="M9.13523 44.4844H0.864765C0.387121 44.4844 0 44.0367 0 43.4844C0 42.932 0.387121 42.4844 0.864765 42.4844H9.13523C9.61288 42.4844 10 42.932 10 43.4844C9.99966 44.0367 9.61288 44.4844 9.13523 44.4844Z" fill="#1E1740"/>
<path d="M15.1218 48.4844H5.87785C5.39298 48.4844 5 48.0367 5 47.4844C5 46.932 5.39298 46.4844 5.87785 46.4844H15.1221C15.607 46.4844 16 46.932 16 47.4844C15.9997 48.0367 15.6067 48.4844 15.1218 48.4844Z" fill="#1E1740"/>
</svg>
