<svg width="40" height="46" viewBox="0 0 40 46" fill="none" xmlns="http://www.w3.org/2000/svg">
<path d="M31.6828 31.1006H8.36476C7.60077 31.1006 6.98145 31.6192 6.98145 32.2589C6.98145 32.8982 7.60077 33.4168 8.36476 33.4168H31.6828C32.4468 33.4168 33.0661 32.8982 33.0661 32.2589C33.0661 31.6192 32.4468 31.1006 31.6828 31.1006Z" fill="#9268F8"/>
<path d="M31.682 33.914H8.36401C7.32742 33.914 6.48438 33.1717 6.48438 32.2597C6.48438 31.3475 7.32742 30.6055 8.36401 30.6055H31.682C32.7186 30.6055 33.5616 31.3478 33.5616 32.2597C33.5616 33.1717 32.7186 33.914 31.682 33.914ZM8.36401 31.5978C7.88311 31.5978 7.47701 31.9009 7.47701 32.2594C7.47701 32.618 7.88311 32.9211 8.36401 32.9211H31.682C32.1629 32.9211 32.569 32.618 32.569 32.2594C32.569 31.9009 32.1629 31.5978 31.682 31.5978H8.36401Z" fill="#1E1740"/>
<path d="M25.6753 24.5232C29.2738 20.2426 30.2231 15.0974 28.0679 12.7953L35.9185 3.23012C36.4666 2.56224 36.3685 1.56731 35.7006 1.01884C35.0328 0.470691 34.0378 0.568774 33.4897 1.23665L10.0628 29.7799C9.51464 30.4478 9.61272 31.4431 10.2806 31.9912C10.2799 31.9912 19.0949 32.3507 25.6753 24.5232Z" fill="#9268F8"/>
<path d="M10.5036 32.6553C10.3681 32.6553 10.2825 32.6523 10.2523 32.651C10.1086 32.6451 9.97054 32.593 9.85934 32.5015C8.90771 31.7204 8.76863 30.3105 9.55 29.3589L32.9769 0.815288C33.7583 -0.136012 35.1678 -0.275425 36.1195 0.505954C37.0711 1.287 37.2099 2.69689 36.4288 3.64852L28.9204 12.7971C30.8581 15.5454 29.7333 20.7217 26.1807 24.9475C20.0117 32.2853 12.0427 32.6553 10.5036 32.6553ZM34.706 1.3244C34.6755 1.3244 34.6446 1.32571 34.6138 1.32899C34.3711 1.35294 34.1529 1.46873 33.9997 1.65506L10.5728 30.1983C10.2999 30.5313 10.3028 31.001 10.5541 31.3291C12.0037 31.3058 19.4911 30.8478 25.1674 24.0956C28.4474 20.1936 29.5316 15.3265 27.5834 13.2458C27.3564 13.0034 27.3442 12.6304 27.5548 12.3736L35.4054 2.80842C35.5582 2.6221 35.6294 2.38559 35.6055 2.14284C35.5815 1.89977 35.4657 1.68195 35.2794 1.52876C35.1167 1.39558 34.9159 1.3244 34.706 1.3244Z" fill="#1E1740"/>
<path d="M39.1141 39.7344H31.8859C31.3966 39.7344 31 39.2867 31 38.7344C31 38.182 31.3966 37.7344 31.8859 37.7344H39.1141C39.6034 37.7344 40 38.182 40 38.7344C40 39.2867 39.6034 39.7344 39.1141 39.7344Z" fill="#1E1740"/>
<path d="M0.800957 41.002C0.359506 41.002 0.00095467 40.5673 1.89781e-06 40.0303C-0.000950874 39.4926 0.356964 39.056 0.799367 39.0548L23.1975 39.002C23.1975 39.002 23.1984 39.002 23.199 39.002C23.6405 39.002 23.999 39.4366 24 39.9736C24.0006 40.5113 23.643 40.9479 23.2006 40.9491L0.802546 41.002C0.801911 41.002 0.800957 41.002 0.800957 41.002Z" fill="#1E1740"/>
<path d="M33.2183 45.7344H18.7814C18.3498 45.7344 18 45.5105 18 45.2344C18 44.9582 18.3498 44.7344 18.7814 44.7344H33.2186C33.6502 44.7344 34 44.9582 34 45.2344C33.9997 45.5105 33.6499 45.7344 33.2183 45.7344Z" fill="#1E1740"/>
</svg>
