<svg width="34" height="55" viewBox="0 0 34 55" fill="none" xmlns="http://www.w3.org/2000/svg">
<path d="M27.7008 32.1269L22.2852 18.1572C21.9044 16.8742 19.5281 15.7819 18.6559 14.9644V5.32185H20.3489V0.662109H8.31621V5.32185H10.0394V14.949C9.10712 15.8157 6.69507 16.993 6.328 18.3786L0.931829 32.3483C-0.271074 36.8873 2.68584 41.4709 6.81645 41.4709H21.8785C26.0944 41.4713 29.0608 36.7105 27.7008 32.1269Z" fill="#9268F8"/>
<path d="M21.8783 42.1324H6.81627C4.84708 42.1324 2.97762 41.1706 1.68713 39.4937C0.134544 37.476 -0.387048 34.7415 0.291983 32.1785C0.298216 32.1552 0.305779 32.1323 0.314307 32.1097L5.69865 18.1711C6.03357 16.9925 7.33916 16.0858 8.49221 15.2848C8.82057 15.0568 9.13515 14.8383 9.37756 14.6444V5.98367H8.31638C7.95095 5.98367 7.65472 5.68746 7.65472 5.32203V0.661635C7.65472 0.296205 7.95095 0 8.31638 0H20.349C20.7144 0 21.0107 0.296205 21.0107 0.661635V5.32137C21.0107 5.6868 20.7144 5.98303 20.349 5.98303H19.3177V14.6576C19.5607 14.8478 19.8852 15.064 20.224 15.29C21.3256 16.0248 22.5728 16.856 22.9113 17.9395L28.318 31.8869C28.3245 31.9036 28.3301 31.9204 28.3353 31.9378C29.1036 34.5273 28.6322 37.3192 27.0744 39.4061C25.7809 41.1388 23.8872 42.1324 21.8783 42.1324ZM1.56248 32.5518C1.00154 34.7103 1.43914 37.0013 2.73619 38.6867C3.78918 40.0553 5.23842 40.8088 6.8166 40.8088H21.8786C23.489 40.8088 24.9572 40.0294 26.0135 38.6143C27.3178 36.8671 27.7134 34.5233 27.0737 32.3396L21.6684 18.3952C21.6618 18.3784 21.6559 18.3617 21.651 18.3443C21.4617 17.7063 20.3218 16.9463 19.4896 16.3909C18.9939 16.0602 18.5255 15.7483 18.2033 15.4462C18.0698 15.3212 17.9941 15.1463 17.9941 14.9633V5.32071C17.9941 4.95528 18.2903 4.65907 18.6557 4.65907H19.687V1.32263H8.97801V4.65907H10.0392C10.4046 4.65907 10.7009 4.95528 10.7009 5.32071V14.9476C10.7009 15.1316 10.6244 15.3067 10.4896 15.4324C10.1701 15.7292 9.72167 16.0409 9.247 16.3706C8.36623 16.9823 7.16004 17.8201 6.96716 18.5471C6.96093 18.5704 6.95371 18.5933 6.94485 18.616L1.56248 32.5518Z" fill="#1E1740"/>
<path d="M4.87967 22.127H23.8243L27.333 31.1781L28.0304 34.5513L27.581 37.0561L26.1114 39.5295L24.0336 41.0267L20.1723 41.4705H12.4412H6.08683L3.25918 40.1702L1.33394 37.6105L0.701172 35.2031L1.14369 31.7987L4.87967 22.127Z" fill="#9268F8"/>
<path d="M21.8783 42.1334H6.81627C4.84708 42.1334 2.97762 41.1716 1.68713 39.4947C0.134544 37.477 -0.387048 34.7424 0.291983 32.1795C0.298216 32.1562 0.305779 32.1333 0.314307 32.1106L5.69865 18.1721C6.03357 16.9935 7.33916 16.0868 8.49221 15.2857C8.82057 15.0577 9.13515 14.8393 9.37756 14.6454V5.98464H8.31638C7.95095 5.98464 7.65472 5.68844 7.65472 5.32301V0.662612C7.65472 0.297181 7.95095 0.000976562 8.31638 0.000976562H20.349C20.7144 0.000976562 21.0107 0.297181 21.0107 0.662612V5.32235C21.0107 5.68778 20.7144 5.984 20.349 5.984H19.3177V14.6585C19.5607 14.8488 19.8852 15.065 20.224 15.291C21.3256 16.0258 22.5728 16.857 22.9113 17.9405L28.318 31.8879C28.3245 31.9046 28.3301 31.9214 28.3353 31.9387C29.1036 34.5283 28.6322 37.3201 27.0744 39.4071C25.7809 41.1398 23.8872 42.1334 21.8783 42.1334ZM1.56248 32.5528C1.00154 34.7113 1.43914 37.0023 2.73619 38.6877C3.78918 40.0563 5.23842 40.8098 6.8166 40.8098H21.8786C23.489 40.8098 24.9572 40.0304 26.0135 38.6152C27.3178 36.8681 27.7134 34.5243 27.0737 32.3406L21.6684 18.3962C21.6618 18.3794 21.6559 18.3627 21.651 18.3453C21.4617 17.7073 20.3218 16.9472 19.4896 16.3919C18.9939 16.0612 18.5255 15.7492 18.2033 15.4471C18.0698 15.3221 17.9941 15.1473 17.9941 14.9643V5.32169C17.9941 4.95626 18.2903 4.66005 18.6557 4.66005H19.687V1.32361H8.97801V4.66005H10.0392C10.4046 4.66005 10.7009 4.95626 10.7009 5.32169V14.9485C10.7009 15.1326 10.6244 15.3077 10.4896 15.4334C10.1701 15.7302 9.72167 16.0419 9.247 16.3715C8.36623 16.9833 7.16004 17.8211 6.96716 18.548C6.96093 18.5713 6.95371 18.5943 6.94485 18.6169L1.56248 32.5528Z" fill="#1E1740"/>
<path d="M23.8251 22.7901H4.88041C4.51497 22.7901 4.21875 22.4939 4.21875 22.1285C4.21875 21.763 4.51497 21.4668 4.88041 21.4668H23.8251C24.1905 21.4668 24.4867 21.763 24.4867 22.1285C24.4867 22.4939 24.1905 22.7901 23.8251 22.7901Z" fill="#1E1740"/>
<path d="M33.1482 54.9961H21.8382C21.3715 54.9961 20.9932 54.3246 20.9932 53.4961C20.9932 52.6676 21.3715 51.9961 21.8382 51.9961H33.1482C33.6149 51.9961 33.9932 52.6676 33.9932 53.4961C33.9928 54.3246 33.6146 54.9961 33.1482 54.9961Z" fill="#1E1740"/>
<path d="M26.1463 49.9961C26.1457 49.9961 26.1453 49.9961 26.1447 49.9961L5.83829 49.9507C5.37056 49.9496 4.99249 49.5113 4.99316 48.9715C4.99384 48.4324 5.37291 47.9961 5.83997 47.9961C5.83997 47.9961 5.84098 47.9961 5.84165 47.9961L26.148 48.0414C26.6157 48.0426 26.9938 48.4809 26.9932 49.0203C26.9922 49.5597 26.6131 49.9961 26.1463 49.9961Z" fill="#1E1740"/>
</svg>
