<svg width="43" height="51" viewBox="0 0 43 51" fill="none" xmlns="http://www.w3.org/2000/svg">
<path d="M41.4521 28.3591V21.5762L2.37591 21.5762V28.3591L41.4521 28.3591Z" fill="#9268F8"/>
<path d="M41.4524 29.0492H2.37582C1.99458 29.0492 1.68555 28.7402 1.68555 28.359V21.576C1.68555 21.1948 1.99458 20.8857 2.37582 20.8857H41.4521C41.8333 20.8857 42.1424 21.1948 42.1424 21.576V28.359C42.1427 28.7402 41.8337 29.0492 41.4524 29.0492ZM3.06644 27.6687H40.7618V22.2666H3.06644V27.6687Z" fill="#1E1740"/>
<path d="M41.4522 18.249H37.2236V36.5907H41.4522V18.249Z" fill="#9268F8"/>
<path d="M41.453 37.2808H37.2245C36.8432 37.2808 36.5342 36.9718 36.5342 36.5906V18.2489C36.5342 17.8676 36.8432 17.5586 37.2245 17.5586H41.453C41.8343 17.5586 42.1433 17.8676 42.1433 18.2489V36.5906C42.1433 36.9718 41.8343 37.2808 41.453 37.2808ZM37.9147 35.9003H40.7627V18.9391H37.9147V35.9003Z" fill="#1E1740"/>
<path d="M4.91802 12.4268H0.689453V36.5908H4.91802V12.4268Z" fill="#9268F8"/>
<path d="M4.91884 37.2809H0.690273C0.309031 37.2809 0 36.9719 0 36.5906V12.4266C0 12.0453 0.309031 11.7363 0.690273 11.7363H4.91884C5.30008 11.7363 5.60911 12.0453 5.60911 12.4266V36.5906C5.60911 36.9719 5.30008 37.2809 4.91884 37.2809ZM1.3802 35.9003H4.22822V13.1172H1.3802V35.9003Z" fill="#1E1740"/>
<path d="M13.3766 19.5038H8.45703C7.6504 19.5038 6.99023 18.8437 6.99023 18.037V17.2715C6.99023 16.4648 7.6504 15.8047 8.45703 15.8047H13.3766C14.1832 15.8047 14.8433 16.4648 14.8433 17.2715V18.037C14.8437 18.8437 14.1835 19.5038 13.3766 19.5038Z" fill="#9268F8"/>
<path d="M13.4626 20.1943H8.37097C7.22895 20.1943 6.2998 19.2651 6.2998 18.1231V17.1854C6.2998 16.0434 7.22895 15.1143 8.37097 15.1143H13.4626C14.6046 15.1143 15.5338 16.0434 15.5338 17.1854V18.1231C15.5338 19.2655 14.6046 20.1943 13.4626 20.1943ZM8.37097 16.4948C7.99007 16.4948 7.6807 16.8045 7.6807 17.1851V18.1228C7.6807 18.5033 7.99041 18.8131 8.37097 18.8131H13.4626C13.8435 18.8131 14.1529 18.5033 14.1529 18.1228V17.1851C14.1529 16.8045 13.8432 16.4948 13.4626 16.4948H8.37097Z" fill="#1E1740"/>
<path d="M33.7228 4.50863H29.7318V0.517578H25.6811V4.50863H21.6904V8.55924H25.6811V12.55H29.7318V8.55924H33.7228V4.50863Z" fill="#9268F8"/>
<path d="M29.7313 13.068H25.6807C25.3946 13.068 25.1629 12.8359 25.1629 12.5502V9.07691H21.6897C21.4036 9.07691 21.1719 8.84488 21.1719 8.55912V4.50885C21.1719 4.22309 21.4036 3.99106 21.6897 3.99106H25.1626V0.517791C25.1626 0.232031 25.3943 0 25.6804 0H29.731C30.0171 0 30.2488 0.232031 30.2488 0.517791V3.99106H33.7217C34.0078 3.99106 34.2395 4.22309 34.2395 4.50885V8.55912C34.2395 8.84522 34.0078 9.07691 33.7217 9.07691H30.2488V12.5502C30.2491 12.8363 30.0174 13.068 29.7313 13.068ZM26.1985 12.0324H29.2136V8.55912C29.2136 8.27336 29.4452 8.04133 29.7313 8.04133H33.2043V5.02664H29.7313C29.4452 5.02664 29.2136 4.79461 29.2136 4.50885V1.03558H26.1985V4.50885C26.1985 4.79461 25.9668 5.02664 25.6807 5.02664H22.2078V8.04133H25.6807C25.9668 8.04133 26.1985 8.27336 26.1985 8.55912V12.0324Z" fill="#1E1740"/>
<path d="M41.1142 44.126H33.8858C33.3966 44.126 33 43.6783 33 43.126C33 42.5736 33.3966 42.126 33.8858 42.126H41.1142C41.6034 42.126 42 42.5736 42 43.126C41.9996 43.6783 41.6031 44.126 41.1142 44.126Z" fill="#272425"/>
<path d="M0.867713 46.126C0.389475 46.126 0.00103422 45.6913 2.0559e-06 45.1543C-0.00103011 44.6166 0.386721 44.18 0.865991 44.1789L25.1306 44.126C25.1306 44.126 25.1316 44.126 25.1323 44.126C25.6105 44.126 25.999 44.5607 26 45.0976C26.001 45.6353 25.6133 46.0719 25.134 46.0731L0.869425 46.126C0.869425 46.126 0.868401 46.126 0.867713 46.126Z" fill="#272425"/>
<path d="M35.1698 50.126H19.8302C19.3717 50.126 19 49.9022 19 49.626C19 49.3498 19.3717 49.126 19.8302 49.126H35.1698C35.6283 49.126 36 49.3498 36 49.626C36 49.9022 35.6283 50.126 35.1698 50.126Z" fill="#272425"/>
</svg>
