<svg width="80" height="80" viewBox="0 0 80 80" fill="none" xmlns="http://www.w3.org/2000/svg">
<path d="M39.9998 39.9766C39.3368 39.9766 38.7009 40.24 38.2321 40.7088C37.7632 41.1776 37.4998 41.8135 37.4998 42.4766V42.4966C37.4998 43.8766 38.6198 44.9966 39.9998 44.9966H40.0198C40.6829 44.9966 41.3188 44.7332 41.7876 44.2643C42.2564 43.7955 42.5198 43.1596 42.5198 42.4966V42.4766C42.5198 41.8135 42.2564 41.1776 41.7876 40.7088C41.3188 40.24 40.6829 39.9766 40.0198 39.9766H39.9998ZM39.9998 54.9799C39.3368 54.9799 38.7009 55.2433 38.2321 55.7121C37.7632 56.181 37.4998 56.8169 37.4998 57.4799V57.4966C37.4998 58.8766 38.6165 59.9966 39.9998 59.9966H40.0165C40.6795 59.9966 41.3154 59.7332 41.7843 59.2643C42.2531 58.7955 42.5165 58.1596 42.5165 57.4966V57.4799C42.5165 56.8169 42.2531 56.181 41.7843 55.7121C41.3154 55.2433 40.6795 54.9799 40.0165 54.9799H39.9998ZM29.9965 57.4799C29.9965 56.8169 30.2599 56.181 30.7287 55.7121C31.1976 55.2433 31.8335 54.9799 32.4965 54.9799H32.5165C33.1795 54.9799 33.8154 55.2433 34.2843 55.7121C34.7531 56.181 35.0165 56.8169 35.0165 57.4799V57.4999C35.0165 58.1629 34.7531 58.7988 34.2843 59.2677C33.8154 59.7365 33.1795 59.9999 32.5165 59.9999H32.4965C31.8335 59.9999 31.1976 59.7365 30.7287 59.2677C30.2599 58.7988 29.9965 58.1629 29.9965 57.4999V57.4799ZM24.9965 54.9799C24.3335 54.9799 23.6976 55.2433 23.2287 55.7121C22.7599 56.181 22.4965 56.8169 22.4965 57.4799V57.4966C22.4965 58.8766 23.6165 59.9966 24.9965 59.9966H25.0132C25.6762 59.9966 26.3121 59.7332 26.7809 59.2643C27.2498 58.7955 27.5132 58.1596 27.5132 57.4966V57.4799C27.5132 56.8169 27.2498 56.181 26.7809 55.7121C26.3121 55.2433 25.6762 54.9799 25.0132 54.9799H24.9965ZM44.9965 49.9899C44.9965 49.3269 45.2599 48.691 45.7287 48.2221C46.1976 47.7533 46.8335 47.4899 47.4965 47.4899H47.5165C48.1795 47.4899 48.8154 47.7533 49.2843 48.2221C49.7531 48.691 50.0165 49.3269 50.0165 49.9899V50.0066C50.0165 50.6696 49.7531 51.3055 49.2843 51.7743C48.8154 52.2432 48.1795 52.5066 47.5165 52.5066H47.4965C46.8335 52.5066 46.1976 52.2432 45.7287 51.7743C45.2599 51.3055 44.9965 50.6696 44.9965 50.0066V49.9899ZM47.4998 54.9799C46.8368 54.9799 46.2009 55.2433 45.7321 55.7121C45.2632 56.181 44.9998 56.8169 44.9998 57.4799V57.4999C44.9998 58.8799 46.1165 59.9999 47.4998 59.9999H47.5165C48.1795 59.9999 48.8154 59.7365 49.2843 59.2677C49.7531 58.7988 50.0165 58.1629 50.0165 57.4999V57.4799C50.0165 56.8169 49.7531 56.181 49.2843 55.7121C48.8154 55.2433 48.1795 54.9799 47.5165 54.9799H47.4998ZM52.4998 49.9832C52.4998 49.3202 52.7632 48.6843 53.2321 48.2155C53.7009 47.7466 54.3368 47.4832 54.9998 47.4832H55.0165C55.6795 47.4832 56.3154 47.7466 56.7843 48.2155C57.2531 48.6843 57.5165 49.3202 57.5165 49.9832V50.0032C57.5165 50.6663 57.2531 51.3022 56.7843 51.771C56.3154 52.2398 55.6795 52.5032 55.0165 52.5032H54.9998C54.3368 52.5032 53.7009 52.2398 53.2321 51.771C52.7632 51.3022 52.4998 50.6663 52.4998 50.0032V49.9832ZM44.9932 42.4766C44.9932 41.8135 45.2566 41.1776 45.7254 40.7088C46.1942 40.24 46.8301 39.9766 47.4932 39.9766H54.9932C55.6562 39.9766 56.2921 40.24 56.7609 40.7088C57.2298 41.1776 57.4932 41.8135 57.4932 42.4766C57.4932 43.1396 57.2298 43.7755 56.7609 44.2443C56.2921 44.7132 55.6562 44.9766 54.9932 44.9766H47.4932C46.8301 44.9766 46.1942 44.7132 45.7254 44.2443C45.2566 43.7755 44.9932 43.1396 44.9932 42.4766ZM22.4932 49.9766C22.4932 49.3135 22.7566 48.6776 23.2254 48.2088C23.6942 47.74 24.3301 47.4766 24.9932 47.4766H39.9932C40.6562 47.4766 41.2921 47.74 41.7609 48.2088C42.2298 48.6776 42.4932 49.3135 42.4932 49.9766C42.4932 50.6396 42.2298 51.2755 41.7609 51.7443C41.2921 52.2132 40.6562 52.4766 39.9932 52.4766H24.9932C24.3301 52.4766 23.6942 52.2132 23.2254 51.7443C22.7566 51.2755 22.4932 50.6396 22.4932 49.9766Z" fill="url(#paint0_linear_713_99)"/>
<path fill-rule="evenodd" clip-rule="evenodd" d="M59.9998 9.97656C59.9998 9.31352 59.7364 8.67764 59.2676 8.2088C58.7988 7.73995 58.1629 7.47656 57.4998 7.47656C56.8368 7.47656 56.2009 7.73995 55.7321 8.2088C55.2632 8.67764 54.9998 9.31352 54.9998 9.97656V14.9766H24.9998V9.9799C24.9998 9.31685 24.7364 8.68097 24.2676 8.21213C23.7988 7.74329 23.1629 7.4799 22.4998 7.4799C21.8368 7.4799 21.2009 7.74329 20.7321 8.21213C20.2632 8.68097 19.9998 9.31685 19.9998 9.9799V14.9699H17.4932C14.841 14.9699 12.2975 16.0235 10.4221 17.8988C8.54673 19.7742 7.49316 22.3177 7.49316 24.9699V62.4766C7.49316 65.1287 8.54673 67.6723 10.4221 69.5476C12.2975 71.423 14.841 72.4766 17.4932 72.4766H62.4932C65.1453 72.4766 67.6889 71.423 69.5642 69.5476C71.4396 67.6723 72.4932 65.1287 72.4932 62.4766V24.9732C72.4932 22.3211 71.4396 19.7775 69.5642 17.9022C67.6889 16.0268 65.1453 14.9732 62.4932 14.9732H59.9998V9.97656ZM12.4932 62.4766V37.4766C12.4932 36.1505 13.0199 34.8787 13.9576 33.941C14.8953 33.0033 16.1671 32.4766 17.4932 32.4766H62.4932C63.8192 32.4766 65.091 33.0033 66.0287 33.941C66.9664 34.8787 67.4932 36.1505 67.4932 37.4766V62.4766C67.4932 63.8026 66.9664 65.0744 66.0287 66.0121C65.091 66.9498 63.8192 67.4766 62.4932 67.4766H17.4932C16.1671 67.4766 14.8953 66.9498 13.9576 66.0121C13.0199 65.0744 12.4932 63.8026 12.4932 62.4766Z" fill="url(#paint1_linear_713_99)"/>
<defs>
<linearGradient id="paint0_linear_713_99" x1="40.0048" y1="39.9766" x2="40.0048" y2="59.9999" gradientUnits="userSpaceOnUse">
<stop stop-color="#9268F8"/>
<stop offset="1" stop-color="#563D92"/>
</linearGradient>
<linearGradient id="paint1_linear_713_99" x1="39.9932" y1="7.47656" x2="39.9932" y2="72.4766" gradientUnits="userSpaceOnUse">
<stop stop-color="#9268F8"/>
<stop offset="1" stop-color="#563D92"/>
</linearGradient>
</defs>
</svg>
