<svg width="80" height="80" viewBox="0 0 80 80" fill="none" xmlns="http://www.w3.org/2000/svg">
<path fill-rule="evenodd" clip-rule="evenodd" d="M25.0068 20H48.7668C51.7476 20.0044 54.6048 21.1916 56.711 23.3009C58.8172 25.4102 60.0002 28.2692 60.0002 31.25V62.5C62.6523 62.5 65.1959 61.4464 67.0712 59.5711C68.9466 57.6957 70.0002 55.1522 70.0002 52.5V20.36C70.0002 15.3433 66.2502 10.99 61.1202 10.56C60.3728 10.4993 59.625 10.4437 58.8768 10.3933C58.0331 8.76763 56.759 7.40489 55.1937 6.4538C53.6283 5.50272 51.8318 4.99983 50.0002 5H45.0002C43.1685 4.99983 41.372 5.50272 39.8067 6.4538C38.2413 7.40489 36.9673 8.76763 36.1235 10.3933C35.3735 10.4433 34.6235 10.5 33.8802 10.56C28.8735 10.9833 25.1802 15.14 25.0068 20ZM45.0002 10C43.6741 10 42.4023 10.5268 41.4646 11.4645C40.527 12.4021 40.0002 13.6739 40.0002 15H55.0002C55.0002 13.6739 54.4734 12.4021 53.5357 11.4645C52.598 10.5268 51.3263 10 50.0002 10H45.0002Z" fill="url(#paint0_linear_713_95)"/>
<path fill-rule="evenodd" clip-rule="evenodd" d="M10 31.25C10 27.7967 12.8 25 16.25 25H48.75C52.2033 25 55 27.8 55 31.25V68.75C55 72.2 52.2 75 48.75 75H16.25C14.5924 75 13.0027 74.3415 11.8306 73.1694C10.6585 71.9973 10 70.4076 10 68.75V31.25ZM41.9533 46.5633C42.368 46.0453 42.5598 45.3837 42.4867 44.7242C42.4135 44.0647 42.0814 43.4613 41.5633 43.0467C41.0453 42.632 40.3837 42.4402 39.7242 42.5133C39.0647 42.5865 38.4613 42.9186 38.0467 43.4367L29.7933 53.7567L26.7667 50.7333C26.2927 50.2917 25.6659 50.0513 25.0183 50.0627C24.3706 50.0742 23.7526 50.3366 23.2946 50.7946C22.8365 51.2526 22.5742 51.8706 22.5627 52.5183C22.5513 53.1659 22.7917 53.7928 23.2333 54.2667L28.2333 59.2667C28.482 59.5153 28.7803 59.7086 29.1088 59.8341C29.4372 59.9595 29.7885 60.0143 30.1395 59.9948C30.4906 59.9753 30.8336 59.882 31.1461 59.7209C31.4587 59.5598 31.7337 59.3346 31.9533 59.06L41.9533 46.5633Z" fill="url(#paint1_linear_713_95)"/>
<defs>
<linearGradient id="paint0_linear_713_95" x1="47.5035" y1="5" x2="47.5035" y2="62.5" gradientUnits="userSpaceOnUse">
<stop stop-color="#9268F8"/>
<stop offset="1" stop-color="#563D92"/>
</linearGradient>
<linearGradient id="paint1_linear_713_95" x1="32.5" y1="25" x2="32.5" y2="75" gradientUnits="userSpaceOnUse">
<stop stop-color="#9268F8"/>
<stop offset="1" stop-color="#563D92"/>
</linearGradient>
</defs>
</svg>
