<svg width="80" height="80" viewBox="0 0 80 80" fill="none" xmlns="http://www.w3.org/2000/svg">
<path fill-rule="evenodd" clip-rule="evenodd" d="M40.0002 22.5007C39.9995 19.7673 40.6391 17.0718 41.8676 14.6302C43.0962 12.1885 44.8797 10.0686 47.075 8.44028C49.2704 6.81197 51.8167 5.72055 54.5098 5.25348C57.203 4.78642 59.9681 4.95669 62.5835 5.75066C62.9969 5.87589 63.3708 6.10609 63.6688 6.41882C63.9667 6.73155 64.1785 7.11615 64.2836 7.53511C64.3887 7.95407 64.3834 8.39312 64.2683 8.80944C64.1532 9.22576 63.9322 9.60516 63.6269 9.91066L52.5602 20.974C52.7702 22.5573 53.4802 24.0873 54.6969 25.304C55.9135 26.5207 57.4435 27.2307 59.0302 27.4373L70.0902 16.374C70.3957 16.0686 70.7751 15.8476 71.1914 15.7325C71.6077 15.6174 72.0468 15.6122 72.4658 15.7172C72.8847 15.8223 73.2693 16.0342 73.582 16.3321C73.8948 16.63 74.125 17.0039 74.2502 17.4173C75.0809 20.1535 75.2285 23.0516 74.68 25.858C74.1315 28.6644 72.9037 31.2936 71.1039 33.5157C69.3042 35.7378 66.9873 37.485 64.356 38.6045C61.7248 39.7239 58.8593 40.1816 56.0102 39.9373C52.6169 39.6507 49.7769 40.2707 48.3135 42.0507L24.4802 71.0007C23.5043 72.1799 22.293 73.1423 20.9237 73.8263C19.5544 74.5103 18.0573 74.9009 16.5284 74.9729C14.9995 75.045 13.4723 74.797 12.0448 74.2447C10.6172 73.6925 9.32073 72.8483 8.23829 71.7661C7.15585 70.6839 6.31133 69.3876 5.75881 67.9601C5.20628 66.5327 4.95793 65.0056 5.02965 63.4766C5.10138 61.9477 5.4916 60.4506 6.17532 59.0811C6.85905 57.7117 7.82121 56.5001 9.00021 55.524L37.9469 31.6873C39.7235 30.2207 40.3469 27.384 40.0602 23.9907C40.0194 23.495 39.9994 22.9979 40.0002 22.5007ZM13.7235 63.7507C13.7235 63.0876 13.9869 62.4517 14.4558 61.9829C14.9246 61.5141 15.5605 61.2507 16.2235 61.2507H16.2502C16.9132 61.2507 17.5491 61.5141 18.018 61.9829C18.4868 62.4517 18.7502 63.0876 18.7502 63.7507V63.7773C18.7502 64.4404 18.4868 65.0763 18.018 65.5451C17.5491 66.0139 16.9132 66.2773 16.2502 66.2773H16.2235C15.5605 66.2773 14.9246 66.0139 14.4558 65.5451C13.9869 65.0763 13.7235 64.4404 13.7235 63.7773V63.7507Z" fill="#9268F8"/>
<path d="M33.5867 28.8005L26.2501 21.4671V16.2471C26.25 15.8155 26.1383 15.3913 25.9257 15.0157C25.713 14.6401 25.4068 14.3259 25.0367 14.1038L12.5367 6.6038C12.0586 6.31721 11.4985 6.19861 10.9453 6.26686C10.392 6.33511 9.87751 6.58628 9.4834 6.98047L6.9834 9.48047C6.58921 9.87458 6.33804 10.3891 6.26979 10.9423C6.20154 11.4956 6.32014 12.0557 6.60673 12.5338L14.1067 25.0338C14.3289 25.4039 14.643 25.7101 15.0186 25.9227C15.3942 26.1353 15.8185 26.2471 16.2501 26.2471H21.4634L28.3367 33.1205L33.5867 28.7971V28.8005Z" fill="#9268F8"/>
<path fill-rule="evenodd" clip-rule="evenodd" d="M41.8535 57.764L55.7969 71.704C56.8415 72.7487 58.0817 73.5774 59.4466 74.1427C60.8116 74.7081 62.2745 74.9991 63.7518 74.9991C65.2292 74.9991 66.6921 74.7081 68.0571 74.1427C69.422 73.5774 70.6622 72.7487 71.7068 71.704C72.7515 70.6593 73.5802 69.4191 74.1456 68.0542C74.7109 66.6893 75.0019 65.2264 75.0019 63.749C75.0019 62.2716 74.7109 60.8087 74.1456 59.4438C73.5802 58.0789 72.7515 56.8387 71.7068 55.794L60.6868 44.7773C58.9977 45.0168 57.2868 45.0649 55.5869 44.9207C54.2735 44.8073 53.3135 44.9007 52.6968 45.0607C52.5017 45.102 52.314 45.1728 52.1402 45.2707L41.8535 57.764ZM53.2335 53.2307C53.7023 52.7625 54.3377 52.4995 55.0002 52.4995C55.6627 52.4995 56.2981 52.7625 56.7669 53.2307L63.0169 59.484C63.2625 59.7129 63.4595 59.9889 63.5961 60.2955C63.7328 60.6022 63.8062 60.9333 63.8122 61.2689C63.8181 61.6046 63.7563 61.938 63.6306 62.2493C63.5049 62.5606 63.3177 62.8434 63.0803 63.0808C62.8429 63.3182 62.5601 63.5054 62.2488 63.6311C61.9375 63.7568 61.6041 63.8186 61.2684 63.8126C60.9328 63.8067 60.6017 63.7333 60.2951 63.5966C59.9884 63.46 59.7124 63.263 59.4835 63.0173L53.2335 56.7673C52.7653 56.2986 52.5024 55.6632 52.5024 55.0007C52.5024 54.3382 52.7653 53.7028 53.2335 53.234V53.2307Z" fill="#9268F8"/>
</svg>
